<svg width="14" height="14" viewBox="0 0 14 14" fill="none" xmlns="http://www.w3.org/2000/svg">
<path fill-rule="evenodd" clip-rule="evenodd" d="M13.75 0.8125C13.75 0.663316 13.6907 0.520242 13.5853 0.414753C13.4798 0.309263 13.3367 0.25 13.1875 0.25H6.43751C6.28832 0.25 6.14525 0.309263 6.03976 0.414753C5.93427 0.520242 5.87501 0.663316 5.87501 0.8125C5.87501 0.961684 5.93427 1.10476 6.03976 1.21025C6.14525 1.31574 6.28832 1.375 6.43751 1.375H11.8296L0.414259 12.7892C0.36196 12.8415 0.320474 12.9036 0.29217 12.972C0.263866 13.0403 0.249298 13.1135 0.249298 13.1875C0.249298 13.2615 0.263866 13.3347 0.29217 13.403C0.320474 13.4714 0.36196 13.5335 0.414259 13.5858C0.466557 13.638 0.528645 13.6795 0.596977 13.7078C0.665309 13.7361 0.738547 13.7507 0.812509 13.7507C0.88647 13.7507 0.959708 13.7361 1.02804 13.7078C1.09637 13.6795 1.15846 13.638 1.21076 13.5858L12.625 2.17037V7.5625C12.625 7.71168 12.6843 7.85476 12.7898 7.96025C12.8952 8.06574 13.0383 8.125 13.1875 8.125C13.3367 8.125 13.4798 8.06574 13.5853 7.96025C13.6907 7.85476 13.75 7.71168 13.75 7.5625V0.8125Z" fill="#B7926A"/>
</svg>
