<svg width="22" height="22" viewBox="0 0 22 22" fill="none" xmlns="http://www.w3.org/2000/svg">
<path d="M11 1.375C11.9117 1.375 12.786 1.73716 13.4307 2.38182C14.0753 3.02648 14.4375 3.90082 14.4375 4.8125V5.5H7.5625V4.8125C7.5625 3.90082 7.92466 3.02648 8.56932 2.38182C9.21398 1.73716 10.0883 1.375 11 1.375ZM15.8125 5.5V4.8125C15.8125 3.53615 15.3055 2.31207 14.403 1.40955C13.5004 0.50703 12.2764 0 11 0C9.72365 0 8.49957 0.50703 7.59705 1.40955C6.69453 2.31207 6.1875 3.53615 6.1875 4.8125V5.5H1.375V19.25C1.375 19.9793 1.66473 20.6788 2.18046 21.1945C2.69618 21.7103 3.39565 22 4.125 22H17.875C18.6043 22 19.3038 21.7103 19.8195 21.1945C20.3353 20.6788 20.625 19.9793 20.625 19.25V5.5H15.8125ZM2.75 6.875H19.25V19.25C19.25 19.6147 19.1051 19.9644 18.8473 20.2223C18.5894 20.4801 18.2397 20.625 17.875 20.625H4.125C3.76033 20.625 3.41059 20.4801 3.15273 20.2223C2.89487 19.9644 2.75 19.6147 2.75 19.25V6.875Z" fill="#222529"/>
</svg>
