<svg width="92" height="83" viewBox="0 0 92 83" fill="none" xmlns="http://www.w3.org/2000/svg">
<g clip-path="url(#clip0_1_1528)">
<path d="M36.0284 76.199C36.0284 76.199 41.3666 77.567 42.5589 82.5212L42.4122 76.6797L36.377 75.8848L36.0284 76.199Z" fill="#B7926A"/>
<path d="M55.8936 76.199C55.8936 76.199 50.5554 77.567 49.3631 82.5212L49.5098 76.6797L55.545 75.8848L55.9119 76.199H55.8936Z" fill="#B7926A"/>
<path d="M32.3227 75.7185C32.0842 75.7185 31.8458 75.7185 31.5706 75.774C31.4972 75.774 31.4238 75.7924 31.3688 75.8109C31.2954 75.8109 31.2404 75.8294 31.167 75.8479C31.0203 75.8664 30.8919 75.9034 30.7451 75.9403C30.1581 76.1067 29.5344 76.3655 28.8924 76.6428C28.2687 76.9201 27.645 77.2343 27.0763 77.5116C26.5076 77.8074 26.0123 78.0847 25.6638 78.2696C25.3153 78.4544 25.0951 78.5838 25.0951 78.5838C25.0951 78.5838 25.1502 78.6023 25.2602 78.6393C25.3703 78.6762 25.517 78.7317 25.7188 78.7872C26.1224 78.8981 26.6727 79.046 27.2964 79.1754C27.4615 79.2123 27.6083 79.2493 27.7734 79.2678C27.9385 79.2863 28.1219 79.3048 28.287 79.3233C28.6355 79.3602 28.9841 79.3972 29.3326 79.3972C30.0297 79.4342 30.7451 79.3417 31.3505 79.1754C32.5612 78.8426 33.3867 78.0847 33.9003 77.4562C34.4139 76.8277 34.6341 76.2916 34.6341 76.2916C34.6341 76.2916 34.2121 76.0143 33.5151 75.8664C33.1665 75.774 32.763 75.7 32.286 75.7L32.3227 75.7185Z" fill="#B7926A"/>
<path d="M34.1759 70.8566C33.9007 70.3945 33.5155 70.0063 33.1303 69.6181C32.9468 69.4332 32.7267 69.2484 32.5249 69.082C32.4149 68.9896 32.3231 68.9156 32.2314 68.8417C32.1397 68.7677 32.0296 68.6938 31.9563 68.6198C31.571 68.3241 31.2408 68.0838 30.984 67.9359C30.7456 67.7695 30.5805 67.6771 30.5805 67.6771C30.5805 67.6771 30.5805 67.8989 30.5805 68.2686C30.5805 68.6383 30.6355 69.119 30.7089 69.692C30.7822 70.2466 30.9107 70.8936 31.0941 71.5037C31.2775 72.0952 31.516 72.6683 31.8279 73.1489C31.9012 73.2783 31.9746 73.3892 32.0663 73.5001C32.103 73.5556 32.1397 73.611 32.1947 73.648C32.2314 73.7035 32.2681 73.7404 32.3232 73.7959C32.4882 73.9623 32.69 74.1287 32.8551 74.2581C33.0386 74.3875 33.222 74.4984 33.4055 74.5723C33.5889 74.6647 33.754 74.7387 33.9191 74.7757C34.5795 74.9605 35.0564 74.942 35.0564 74.942C35.0564 74.942 35.1298 74.369 35.0564 73.5926C35.0197 73.2044 34.9464 72.7607 34.7996 72.2985C34.7629 72.1876 34.7262 72.0767 34.6895 71.9473C34.6529 71.8364 34.5978 71.707 34.5428 71.5961C34.4327 71.3558 34.3227 71.1339 34.1759 70.8936V70.8566Z" fill="#B7926A"/>
<path d="M24.7822 72.2062C24.7822 72.2062 24.6721 72.1137 24.5988 72.0398C24.452 71.9104 24.2135 71.7255 23.9017 71.5407C23.7549 71.4482 23.5715 71.3743 23.388 71.2819C23.2046 71.2079 22.9845 71.134 22.7643 71.06C22.3241 70.9306 21.7921 70.8567 21.1867 70.8567C20.8749 70.8567 20.563 70.8752 20.2329 70.9121C19.9027 70.9491 19.5541 70.9861 19.2239 71.0415C18.8754 71.097 18.5269 71.1709 18.1967 71.2264C17.8665 71.3003 17.5363 71.3558 17.2244 71.4297C16.6007 71.5592 16.0504 71.6886 15.6652 71.781C15.2616 71.8734 15.0231 71.9474 15.0231 71.9474C15.0231 71.9474 15.2249 72.0952 15.5734 72.2986C15.7385 72.4095 15.9587 72.5389 16.1788 72.6683C16.2889 72.7423 16.4173 72.8162 16.5457 72.8716C16.6741 72.9456 16.8208 73.0011 16.9676 73.075C17.2611 73.2044 17.573 73.3523 17.8848 73.4817C18.0499 73.5371 18.215 73.6111 18.3801 73.6665C18.4718 73.7035 18.5452 73.722 18.6186 73.759C18.7103 73.7775 18.7837 73.8144 18.8754 73.8329C19.5541 74.0178 20.2512 74.1472 20.8749 74.1472C22.159 74.1102 23.1312 73.6296 23.81 73.1674C24.1402 72.9456 24.397 72.7053 24.5804 72.5204C24.7455 72.354 24.8372 72.2246 24.8372 72.2246C24.8372 72.2246 24.8189 72.2062 24.7822 72.1692V72.2062Z" fill="#B7926A"/>
<path d="M23.0038 68.4349C23.1689 68.971 23.4074 69.3962 23.6826 69.7474C23.811 69.9323 23.9577 70.0802 24.1228 70.1911C24.2696 70.3205 24.4163 70.4314 24.5631 70.5238C24.8566 70.7087 25.1134 70.8196 25.2968 70.8936C25.3886 70.9305 25.4803 70.949 25.517 70.9675C25.572 70.9675 25.6087 70.986 25.6087 70.986C25.6087 70.986 25.6637 70.8566 25.7371 70.6348C25.8105 70.4129 25.9022 70.0802 25.9756 69.692C26.1223 68.9156 26.1774 67.8803 25.8838 66.8821C25.7371 66.3645 25.4986 65.8654 25.2235 65.4032C24.9483 64.9411 24.6548 64.4974 24.3613 64.1277C24.2145 63.9428 24.0861 63.758 23.9577 63.6101C23.8476 63.4622 23.7192 63.3143 23.6275 63.2034C23.4441 62.9816 23.3157 62.8522 23.3157 62.8522C23.3157 62.8522 23.2423 63.0555 23.1689 63.4067C23.0772 63.758 22.9855 64.2571 22.8938 64.8117C22.8571 65.089 22.8204 65.4032 22.7837 65.7175C22.7837 66.0133 22.747 66.3275 22.7653 66.6418C22.7653 66.956 22.7837 67.2703 22.8204 67.5661C22.8571 67.8619 22.9121 68.1576 23.0038 68.4349Z" fill="#B7926A"/>
<path d="M15.997 65.1629C15.887 64.9966 15.7219 64.7563 15.4651 64.4975C15.2266 64.2386 14.8964 63.9798 14.5112 63.7395C14.1259 63.4992 13.649 63.2774 13.062 63.111C12.8602 63.0555 12.6584 63.0186 12.4383 62.9631C12.2365 62.9261 12.0164 62.8892 11.7962 62.8522C10.6772 62.6858 9.42984 62.6119 8.47594 62.5564C7.52205 62.501 6.82497 62.4825 6.82497 62.4825C6.82497 62.4825 7.06345 62.7783 7.44867 63.2219C7.8339 63.6656 8.43926 64.2017 9.09964 64.7378C9.19137 64.8117 9.30143 64.9041 9.41149 64.9781C9.46653 65.0151 9.52156 65.052 9.57659 65.089C9.63162 65.126 9.68666 65.1629 9.74169 65.1999C9.96182 65.3478 10.2003 65.4772 10.4204 65.6066C10.6589 65.736 10.879 65.8469 11.1175 65.9394C11.356 66.0318 11.5761 66.1242 11.8146 66.1797C13.062 66.4939 14.1259 66.2906 14.9147 66.0318C15.7035 65.7545 16.1621 65.4033 16.1621 65.4033C16.1621 65.4033 16.1071 65.2923 15.997 65.126V65.1629Z" fill="#B7926A"/>
<path d="M16.3992 63.7026C16.6193 63.9614 16.8394 64.1462 17.0045 64.2572C17.1696 64.3681 17.2797 64.4235 17.2797 64.4235C17.2797 64.4235 17.6466 63.9799 18.0134 63.2774C18.3803 62.5749 18.7472 61.5952 18.7289 60.5415C18.7289 60.1533 18.6922 59.7466 18.6188 59.3769C18.5821 59.192 18.5271 58.9887 18.472 58.8038C18.417 58.619 18.362 58.4341 18.307 58.2492C18.2152 57.935 18.1052 57.6392 17.9951 57.3804C17.9584 57.3065 17.9401 57.251 17.9217 57.1771C17.885 57.1216 17.8667 57.0477 17.8483 56.9922C17.8117 56.8628 17.7566 56.7519 17.7199 56.6594C17.5548 56.2528 17.4081 55.994 17.4081 55.994C17.4081 55.994 17.0779 56.5116 16.6743 57.288C16.5643 57.4913 16.4725 57.6947 16.3625 57.9165C16.3074 58.0274 16.2524 58.1383 16.2157 58.2677C16.1607 58.3786 16.124 58.508 16.069 58.619C15.8855 59.0996 15.7388 59.6172 15.6287 60.1348C15.592 60.3381 15.5553 60.523 15.5186 60.7264C15.5003 60.9112 15.482 61.0961 15.482 61.2809C15.482 61.8355 15.592 62.3161 15.7571 62.7228C15.9222 63.1295 16.1607 63.4438 16.3808 63.7026H16.3992Z" fill="#B7926A"/>
<path d="M7.74094 56.8073C7.97942 56.8073 8.19955 56.8073 8.41968 56.8073C9.24516 56.7519 9.79549 56.5485 9.79549 56.5485C9.79549 56.5485 9.77714 56.4376 9.70376 56.2343C9.66708 56.1418 9.63039 56.0309 9.57536 55.9015C9.52032 55.7721 9.46529 55.6242 9.39191 55.4764C9.22682 55.1621 9.00669 54.8293 8.67649 54.4781C8.60312 54.4042 8.52974 54.3117 8.43802 54.2193C8.3463 54.1269 8.25458 54.0529 8.16286 53.9605C7.96107 53.7941 7.74094 53.6278 7.48413 53.4799C7.22731 53.332 6.9338 53.1841 6.6403 53.0362C6.34679 52.8883 6.03494 52.7589 5.72309 52.611C5.08105 52.3522 4.42066 52.1119 3.8153 51.8901C3.22829 51.6867 2.69631 51.5019 2.31109 51.3725C1.92586 51.2431 1.68739 51.1691 1.68739 51.1691C1.68739 51.1691 1.77911 51.391 1.9442 51.7607C2.03592 51.9455 2.12764 52.1674 2.25605 52.4077C2.38446 52.648 2.53121 52.9068 2.69631 53.1656C2.86141 53.4244 3.04485 53.7202 3.24664 53.9975C3.30167 54.0714 3.33836 54.1269 3.39339 54.2008C3.44842 54.2748 3.50345 54.3302 3.55849 54.4042C3.66855 54.5336 3.77861 54.663 3.90702 54.7924C4.1455 55.0512 4.38397 55.2915 4.64079 55.5133C4.7692 55.6242 4.89761 55.7352 5.02601 55.8276C5.15442 55.92 5.30118 56.0124 5.42959 56.0864C5.97991 56.4006 6.53023 56.5855 7.04387 56.6964C7.30069 56.7519 7.53916 56.7704 7.77763 56.7889L7.74094 56.8073Z" fill="#B7926A"/>
<path d="M10.2181 53.8311C10.2732 54.2563 10.3832 54.6445 10.53 54.9403C10.6034 55.0882 10.6767 55.236 10.7501 55.347C10.8235 55.4579 10.8969 55.5688 10.9703 55.6427C11.0987 55.7906 11.1904 55.883 11.1904 55.883C11.1904 55.883 11.6673 55.5503 12.2177 54.9772C12.3644 54.8293 12.4928 54.6815 12.6396 54.4966C12.7863 54.3117 12.9331 54.1269 13.0615 53.9235C13.3183 53.5168 13.5568 53.0547 13.7035 52.5556C13.7402 52.4262 13.7769 52.2968 13.7952 52.1674C13.8319 52.038 13.8503 51.9086 13.8686 51.7607C13.9053 51.5019 13.942 51.2246 13.942 50.9658C13.942 50.4297 13.942 49.9121 13.9237 49.4499C13.9237 49.2096 13.887 49.0063 13.8503 48.8029C13.8503 48.5996 13.8136 48.4332 13.7952 48.2853C13.7586 47.9896 13.7219 47.8232 13.7219 47.8232C13.7219 47.8232 13.5568 47.9711 13.2816 48.2114C13.0248 48.4702 12.6579 48.8214 12.2543 49.2651C11.8875 49.6903 11.4839 50.2079 11.1537 50.744C10.9886 51.0028 10.8235 51.28 10.6767 51.5573C10.5483 51.8346 10.4383 52.1119 10.3649 52.3707C10.2732 52.6295 10.2365 52.8883 10.2181 53.1286C10.2181 53.258 10.1998 53.369 10.1998 53.4799C10.1998 53.5353 10.1998 53.5908 10.1998 53.6462C10.1998 53.7017 10.1998 53.7572 10.2181 53.8126V53.8311Z" fill="#B7926A"/>
<path d="M2.91621 45.7712C3.15468 45.9376 3.39315 46.067 3.63163 46.1964C4.10858 46.4182 4.56718 46.5661 4.97075 46.6401C5.77789 46.8065 6.3649 46.751 6.3649 46.751C6.3649 46.751 6.43828 46.2704 6.29152 45.6049C6.25484 45.4385 6.1998 45.2536 6.14477 45.0688C6.08974 44.8839 5.99802 44.6806 5.9063 44.4772C5.79623 44.2739 5.68617 44.052 5.52107 43.8487C5.4477 43.7378 5.35597 43.6269 5.26425 43.5344C5.22757 43.479 5.17253 43.4235 5.13585 43.3681C5.08081 43.3126 5.04413 43.2572 4.98909 43.2017C4.2003 42.3329 2.91621 41.4455 1.88894 40.7246C1.3753 40.3733 0.916699 40.0591 0.568161 39.8373C0.219623 39.6154 0.0178375 39.486 0.0178375 39.486C0.0178375 39.486 0.0545258 39.7263 0.109558 40.1145C0.182935 40.5027 0.274655 41.0573 0.439752 41.6489C0.623193 42.2589 0.861667 42.9059 1.13683 43.5344C1.21021 43.6823 1.28358 43.8487 1.3753 43.9966C1.46702 44.1445 1.5404 44.2924 1.65046 44.4218C1.8339 44.6991 2.03569 44.9579 2.25582 45.1797C2.47595 45.4015 2.69608 45.6049 2.93455 45.7712H2.91621Z" fill="#B7926A"/>
<path d="M7.851 46.4737C7.851 46.4737 8.40133 46.2889 9.0984 45.8637C9.44694 45.6603 9.83217 45.383 10.1807 45.0688C10.3641 44.9024 10.5292 44.736 10.7127 44.5327C10.8778 44.3478 11.0429 44.126 11.1896 43.9042C11.3364 43.6823 11.4648 43.442 11.5749 43.2017C11.6849 42.9614 11.7766 42.7026 11.8684 42.4438C12.0518 41.9447 12.1802 41.4271 12.2719 40.9649C12.382 40.5028 12.4554 40.0961 12.4921 39.8188C12.5288 39.523 12.5471 39.3566 12.5471 39.3566C12.5471 39.3566 12.3453 39.4491 12.0151 39.6339C11.6849 39.8003 11.2447 40.0591 10.7677 40.3918C10.2908 40.7061 9.74045 41.0943 9.28185 41.5195C8.8049 41.9447 8.38298 42.4068 8.07113 42.8874C7.90604 43.1278 7.79597 43.3496 7.70425 43.5899C7.61253 43.8117 7.5575 44.0521 7.52081 44.2554C7.48412 44.4772 7.46578 44.6806 7.46578 44.8654C7.46578 45.0503 7.48412 45.2352 7.52081 45.4015C7.63087 46.067 7.88769 46.4737 7.88769 46.4737H7.851Z" fill="#B7926A"/>
<path d="M1.63294 31.1673C1.66963 31.4262 1.72466 31.685 1.77969 31.9253C1.88976 32.4244 2.03651 32.905 2.27498 33.3117C2.56849 33.8663 2.93537 34.31 3.3206 34.6427C3.70582 34.9939 4.09105 35.2527 4.47628 35.4376C5.21004 35.8258 5.79705 35.9367 5.79705 35.9367C5.79705 35.9367 5.85209 35.8258 5.88877 35.6225C5.94381 35.4191 6.01718 35.1418 6.03553 34.7906C6.07221 34.4394 6.05387 34.0327 5.98049 33.589C5.90712 33.1453 5.76036 32.6462 5.4852 32.1101C5.39348 31.9438 5.28342 31.7589 5.17335 31.574C5.11832 31.4816 5.06329 31.3892 5.00826 31.2967C4.95322 31.2043 4.89819 31.1119 4.82482 31.0195C4.51297 30.5573 4.16443 30.0952 3.81589 29.6515C3.46735 29.2078 3.11881 28.7827 2.82531 28.4314C2.23829 27.7105 1.77969 27.1929 1.77969 27.1929C1.77969 27.1929 1.70632 27.5626 1.63294 28.1357C1.59625 28.4314 1.57791 28.7642 1.55956 29.1524C1.55956 29.5221 1.55956 29.9288 1.55956 30.354C1.55956 30.6128 1.59625 30.8716 1.63294 31.1304V31.1673Z" fill="#B7926A"/>
<path d="M11.2273 34.5133C11.2273 34.5133 11.374 34.3839 11.4474 34.3099C11.5208 34.236 11.5942 34.162 11.6675 34.0881C11.8143 33.9402 11.9427 33.7923 12.0528 33.626C12.1812 33.4781 12.2912 33.3117 12.4013 33.1453C12.5114 32.9789 12.6214 32.8126 12.7132 32.6647C12.8966 32.3874 13.0433 32.1101 13.1718 31.8513C13.2451 31.7219 13.3002 31.5925 13.3552 31.4816C13.4102 31.3707 13.4653 31.2598 13.5203 31.1673C13.7221 30.7791 13.8321 30.5018 13.8321 30.5018C13.8321 30.5018 13.2084 30.5943 12.3279 30.8346C12.1078 30.89 11.8693 30.964 11.6492 31.0379C11.4107 31.1119 11.1723 31.2043 10.9338 31.2967C10.4385 31.4816 9.94319 31.7219 9.46625 31.9807C9.09936 32.184 8.78751 32.4059 8.51235 32.6462C8.09044 33.0159 7.77859 33.4226 7.59515 33.8108C7.41171 34.199 7.30164 34.5872 7.26495 34.92C7.22827 35.2527 7.20992 35.53 7.26495 35.7334C7.2833 35.9367 7.31999 36.0476 7.31999 36.0476C7.31999 36.0476 7.907 36.0106 8.67745 35.8073C9.4479 35.5855 10.4568 35.1973 11.2456 34.4948L11.2273 34.5133Z" fill="#B7926A"/>
<path d="M6.32912 23.4957C6.60428 23.9394 6.91613 24.2906 7.20964 24.5679C7.815 25.1225 8.32863 25.3997 8.32863 25.3997C8.32863 25.3997 8.40201 25.3073 8.51207 25.1409C8.62214 24.9746 8.75055 24.6973 8.87895 24.383C9.00736 24.0688 9.11743 23.6806 9.17246 23.2184C9.1908 22.9966 9.1908 22.7378 9.1908 22.4975C9.1908 22.2571 9.17246 21.9614 9.11743 21.6841C9.06239 21.3883 8.98902 21.0925 8.8973 20.7783C8.84227 20.6304 8.80558 20.464 8.75055 20.2976C8.69551 20.1497 8.64048 19.9834 8.58545 19.817C8.36532 19.1885 8.1085 18.5415 7.87003 17.9684C7.74162 17.6911 7.63155 17.4138 7.52149 17.1735C7.41142 16.9332 7.3197 16.7114 7.24633 16.545C7.08123 16.1753 6.98951 15.9719 6.98951 15.9719C6.98951 15.9719 6.87945 16.1938 6.71435 16.545C6.62263 16.7298 6.53091 16.9517 6.43919 17.192C6.34747 17.4508 6.2374 17.7281 6.14568 18.0239C6.09065 18.1717 6.05396 18.3196 5.99893 18.486C5.96224 18.6524 5.90721 18.8003 5.87052 18.9666C5.79714 19.2994 5.74211 19.6321 5.68708 19.9834C5.65039 20.3161 5.6137 20.6674 5.6137 20.9816C5.6137 21.3144 5.65039 21.6471 5.70542 21.9429C5.83383 22.5529 6.03562 23.0705 6.31078 23.5142L6.32912 23.4957Z" fill="#B7926A"/>
<path d="M14.6939 25.1224C14.9324 24.9746 15.1525 24.8082 15.3726 24.6418C15.5927 24.4754 15.7945 24.2906 15.978 24.1242C16.1614 23.9578 16.3632 23.773 16.5283 23.6066C16.6934 23.4402 16.8401 23.2739 16.9869 23.126C17.0603 23.052 17.1153 22.9781 17.1703 22.9226C17.2254 22.8487 17.2804 22.7932 17.3354 22.7378C17.5372 22.5159 17.6473 22.3865 17.6473 22.3865C17.6473 22.3865 17.4272 22.368 17.0419 22.3311C16.675 22.3126 16.1431 22.2756 15.5561 22.2941C14.969 22.2941 14.327 22.368 13.685 22.479C13.5199 22.5159 13.3548 22.5344 13.208 22.5714C13.0613 22.6084 12.8962 22.6453 12.7494 22.7008C12.4559 22.7932 12.1624 22.8856 11.9056 23.0151C11.6488 23.126 11.4103 23.2739 11.2085 23.4033C11.0067 23.5511 10.8416 23.7175 10.6765 23.8654C10.383 24.1982 10.1629 24.5309 10.0161 24.8267C9.86938 25.1224 9.81434 25.3997 9.77765 25.6031C9.74097 25.8064 9.74097 25.9173 9.74097 25.9173C9.74097 25.9173 10.3096 26.0467 11.1168 26.0467C11.5203 26.0467 11.9789 26.0283 12.4742 25.9358C12.9695 25.8619 13.4832 25.714 13.9785 25.4922C14.2169 25.3813 14.4554 25.2334 14.6755 25.0855L14.6939 25.1224Z" fill="#B7926A"/>
<path d="M12.1254 14.0309C12.2722 14.53 12.474 14.9552 12.6758 15.2879C13.0977 15.9719 13.5196 16.3786 13.5196 16.3786C13.5196 16.3786 13.9415 16.1013 14.3634 15.5468C14.4735 15.3989 14.5652 15.251 14.6753 15.0661C14.7853 14.8997 14.877 14.6964 14.9688 14.4931C15.1522 14.0679 15.2806 13.5688 15.3356 12.9772C15.3907 12.4041 15.3907 11.7386 15.3356 11.0547C15.2806 10.3707 15.2256 9.70519 15.1522 9.09516C15.0788 8.48512 15.0055 7.94903 14.9504 7.54234C14.8954 7.15414 14.8587 6.91382 14.8587 6.91382C14.8587 6.91382 14.8037 6.95079 14.7303 7.04322C14.6569 7.13565 14.5652 7.24657 14.4184 7.41294C14.1616 7.7272 13.8131 8.17086 13.4645 8.68847C13.1344 9.22456 12.7858 9.8346 12.4923 10.4446C12.2171 11.0732 12.0337 11.7386 11.9787 12.3487C11.9787 12.4966 11.9603 12.6445 11.9603 12.7923C11.9603 12.9402 11.9603 13.0881 11.9787 13.2175C12.0154 13.4948 12.0704 13.7536 12.1254 14.0124V14.0309Z" fill="#B7926A"/>
<path d="M19.7384 17.7651C19.8668 17.7281 19.9952 17.6726 20.1237 17.6172C20.1787 17.5987 20.2521 17.5617 20.3071 17.5432C20.3805 17.5063 20.4355 17.4878 20.4905 17.4693C21.0042 17.2659 21.4811 17.0071 21.8847 16.7668C22.3066 16.545 22.6551 16.3232 22.912 16.1568C23.0404 16.0644 23.1321 16.0089 23.1871 15.9534C23.2605 15.9165 23.2972 15.8795 23.2972 15.8795C23.2972 15.8795 23.2422 15.861 23.1504 15.824C23.0404 15.7871 22.912 15.7316 22.7285 15.6762C22.38 15.5652 21.8847 15.4174 21.316 15.2695C21.0225 15.1955 20.729 15.1401 20.4172 15.0846C20.2521 15.0476 20.1053 15.0291 19.9402 15.0107C19.7751 14.9922 19.61 14.9737 19.4633 14.9552C18.8212 14.8997 18.1792 14.8997 17.5922 14.9922C17.0235 15.0846 16.5649 15.288 16.1797 15.5098C15.9779 15.6207 15.8128 15.7501 15.666 15.8795C15.5193 16.0089 15.3909 16.1383 15.2808 16.2677C14.8405 16.7853 14.6938 17.229 14.6938 17.229C14.6938 17.229 15.2074 17.5063 15.9962 17.7281C16.3815 17.839 16.8401 17.9314 17.3353 17.9869C17.8306 18.0424 18.3443 18.0239 18.8946 17.9314C19.1698 17.8945 19.4266 17.8205 19.7017 17.7281L19.7384 17.7651Z" fill="#B7926A"/>
<path d="M21.2427 8.3742C21.3528 8.59603 21.4078 8.72543 21.4078 8.72543C21.4078 8.72543 21.4445 8.72543 21.4996 8.68846C21.5546 8.66997 21.628 8.633 21.7197 8.59603C21.9215 8.5036 22.1783 8.3742 22.4535 8.15237C23.0038 7.7087 23.6825 7.0617 24.1228 5.95254C24.2695 5.58282 24.3979 5.19462 24.5263 4.76944C24.6731 4.23335 24.7832 3.67877 24.8932 3.12419C25.0033 2.5881 25.095 2.07049 25.1684 1.60835C25.3151 0.684048 25.4069 0.0185547 25.4069 0.0185547C25.4069 0.0185547 25.0767 0.2219 24.5997 0.554647C24.3612 0.72102 24.0677 0.924366 23.7742 1.16468C23.4807 1.405 23.1689 1.68229 22.8754 1.97806C22.6919 2.16292 22.5085 2.34778 22.325 2.53264C22.27 2.5881 22.2333 2.62507 22.1966 2.68053C22.1599 2.73599 22.1233 2.77296 22.0682 2.82842C21.9948 2.93933 21.9031 3.03176 21.8298 3.14268C21.5179 3.56785 21.2611 3.99303 21.0776 4.43669C20.9492 4.71398 20.8942 5.00976 20.8392 5.28705C20.7841 5.56434 20.7658 5.82314 20.7658 6.08194C20.7658 6.59955 20.8208 7.04321 20.9309 7.43142C21.0226 7.81962 21.151 8.13388 21.2427 8.35571V8.3742Z" fill="#B7926A"/>
<path d="M28.5619 11.5538C28.8921 11.4798 29.2039 11.4059 29.4974 11.332C29.7909 11.258 30.0478 11.2026 30.2679 11.1286C30.7082 10.9992 30.965 10.8883 30.965 10.8883C30.965 10.8883 30.4697 10.5186 29.7176 10.0564C29.3507 9.8346 28.8921 9.5758 28.4151 9.33548C27.9382 9.11365 27.4246 8.9103 26.9109 8.74393C26.5257 8.63301 26.1221 8.54058 25.7552 8.48513C24.6179 8.37421 23.7374 8.70696 23.1687 9.09516C22.8936 9.28002 22.6734 9.48337 22.545 9.63125C22.4716 9.7052 22.4166 9.76066 22.3983 9.79763C22.3616 9.8346 22.3432 9.87157 22.3432 9.87157C22.3432 9.87157 22.4533 9.964 22.6367 10.1304C22.8202 10.2783 23.0953 10.4816 23.4622 10.7034C23.8108 10.9253 24.2143 11.1286 24.6729 11.3135C24.9114 11.4059 25.1499 11.4798 25.3884 11.5353C25.6452 11.5908 25.902 11.6462 26.1772 11.6832C26.9843 11.7756 27.8098 11.6462 28.5802 11.5168L28.5619 11.5538Z" fill="#B7926A"/>
<path d="M40.3933 76.5687C40.1731 76.5502 39.9163 76.5133 39.6045 76.4763C39.4577 76.4578 39.2926 76.4393 39.1275 76.4024C38.9624 76.3654 38.779 76.3469 38.5955 76.3099C38.2287 76.2545 37.8251 76.1805 37.3848 76.1066C36.9629 76.0142 36.5227 75.9217 36.0457 75.8108C35.8072 75.7553 35.5871 75.7184 35.3486 75.6444C35.1102 75.589 34.8717 75.515 34.6332 75.4411C34.1563 75.3117 33.661 75.1823 33.184 75.0159C31.2579 74.4244 29.4051 73.6295 28.0293 72.9825C27.6991 72.8161 27.3873 72.6682 27.1121 72.5203C26.9654 72.4464 26.837 72.3909 26.7269 72.3355C26.6168 72.28 26.5068 72.2061 26.415 72.1691C26.0298 71.9473 25.8097 71.8363 25.8097 71.8363C25.8097 71.8363 25.5896 71.7069 25.2043 71.5036C24.8191 71.2818 24.3055 70.949 23.6634 70.5423C22.416 69.7104 20.7834 68.5458 19.2792 67.2333C17.775 65.9208 16.3992 64.4789 15.4269 63.3328C15.2985 63.2034 15.1884 63.0555 15.0784 62.9261C14.9683 62.7967 14.8766 62.6673 14.7665 62.5564C14.5647 62.3161 14.418 62.1127 14.2712 61.9464C14.1245 61.78 14.0328 61.6321 13.9777 61.5397C13.9044 61.4472 13.8677 61.3918 13.8677 61.3918C13.8677 61.3918 13.7209 61.1884 13.4641 60.8372C13.3357 60.6708 13.1706 60.449 13.0055 60.2087C12.8404 59.9499 12.657 59.6726 12.4552 59.3583C12.3451 59.2104 12.2534 59.0441 12.1433 58.8777C12.0333 58.7113 11.9232 58.5265 11.8315 58.3416C11.6113 57.9719 11.3912 57.5837 11.1527 57.1955C10.9326 56.7888 10.7125 56.3636 10.4924 55.9384C10.4373 55.8275 10.3823 55.7166 10.3273 55.6057C10.2722 55.4948 10.2172 55.3839 10.1805 55.2729C10.0704 55.0511 9.97872 54.8293 9.86865 54.6074C9.04317 52.8143 8.36443 50.9657 7.97921 49.5423C7.92417 49.3574 7.88749 49.1911 7.83245 49.0432C7.79577 48.8768 7.74073 48.7289 7.70405 48.581C7.63067 48.2853 7.57564 48.0264 7.5206 47.8231C7.41054 47.3979 7.35551 47.1576 7.35551 47.1576C7.35551 47.1576 7.35551 47.1021 7.31882 46.9912C7.30047 46.8803 7.26379 46.7139 7.2271 46.4921C7.19041 46.2888 7.15372 46.03 7.08035 45.7342C7.02531 45.4384 6.95194 45.1057 6.91525 44.736C6.86022 44.3662 6.80518 43.978 6.7685 43.5528C6.7685 43.4419 6.73181 43.3495 6.73181 43.2386C6.73181 43.1277 6.71346 43.0168 6.69512 42.9058C6.69512 42.684 6.65843 42.4622 6.64009 42.2219C6.54837 41.2976 6.54837 40.3178 6.51168 39.3381C6.54837 38.3583 6.54837 37.3785 6.64009 36.4542C6.64009 36.2324 6.67677 35.9921 6.69512 35.7703C6.69512 35.6594 6.69512 35.5484 6.73181 35.4375C6.73181 35.3266 6.7685 35.2157 6.7685 35.1233C6.82353 34.7166 6.87856 34.3099 6.91525 33.9402C6.95194 33.5704 7.02531 33.2377 7.08035 32.9419C7.13538 32.6461 7.17207 32.3873 7.2271 32.184C7.26379 31.9807 7.30047 31.8143 7.31882 31.7034C7.33716 31.5924 7.35551 31.537 7.35551 31.537C7.35551 31.537 7.41054 31.2967 7.5206 30.89C7.57564 30.6866 7.63067 30.4278 7.70405 30.1321C7.74073 29.9842 7.77742 29.8363 7.83245 29.6699C7.88749 29.5035 7.94252 29.3372 7.97921 29.1708C8.36443 27.7474 9.04317 25.8988 9.86865 24.1056C9.97872 23.8838 10.0704 23.662 10.1805 23.4401C10.2355 23.3292 10.2906 23.2183 10.3273 23.1074C10.3823 22.9965 10.4373 22.8856 10.4924 22.7747C10.7125 22.3495 10.951 21.9243 11.1527 21.5176C11.3912 21.1109 11.6113 20.7412 11.8315 20.3715C11.9415 20.1866 12.0333 20.0018 12.1433 19.8354C12.2534 19.669 12.3635 19.5026 12.4552 19.3548C12.657 19.0405 12.8404 18.7632 13.0055 18.5044C13.1706 18.2456 13.3357 18.0423 13.4641 17.8759C13.7209 17.5246 13.8677 17.3213 13.8677 17.3213C13.8677 17.3213 13.9044 17.2658 13.9777 17.1734C14.0511 17.081 14.1428 16.9331 14.2712 16.7667C14.418 16.6004 14.5647 16.397 14.7665 16.1567C14.8583 16.0458 14.9683 15.9164 15.0784 15.787C15.1884 15.6576 15.2985 15.5097 15.4269 15.3803C16.3992 14.2526 17.775 12.8107 19.2792 11.4982C20.7834 10.1672 22.416 9.02112 23.6634 8.18925C24.3055 7.80104 24.8191 7.44981 25.2043 7.22798C25.5896 7.00615 25.8097 6.89523 25.8097 6.89523C25.8097 6.89523 26.0298 6.76583 26.415 6.56249C26.5068 6.50703 26.6168 6.45157 26.7269 6.37763C26.837 6.32217 26.9654 6.24823 27.1121 6.19277C27.2038 6.1558 27.2956 6.10034 27.4056 6.04488H27.424C27.6624 6.06337 28.011 6.08185 28.4146 6.04488C29.2217 6.00791 30.2857 5.84154 31.2212 5.32393C31.6982 5.06513 32.1568 4.73238 32.5603 4.36266C32.7438 4.1778 32.9639 3.99294 33.1473 3.80808C33.3308 3.62322 33.4959 3.43836 33.661 3.27199C33.9545 2.92076 34.2296 2.6065 34.4131 2.36618C34.5782 2.14435 34.6882 1.99646 34.6882 1.99646C34.6882 1.99646 34.4681 1.99646 34.1012 1.99646C33.7344 1.99646 33.2024 1.99646 32.6154 2.05192C32.4686 2.05192 32.3219 2.0704 32.1568 2.08889C32.01 2.10738 31.8449 2.12586 31.6982 2.16283C31.3863 2.21829 31.0745 2.27375 30.7626 2.34769C30.1389 2.49558 29.4969 2.69893 29.0199 2.97621C28.5246 3.2535 28.1394 3.58625 27.8459 3.919C27.5707 4.25174 27.3873 4.62146 27.2589 4.93572C27.1488 5.24999 27.0754 5.52727 27.0571 5.71213C27.0571 5.7491 27.0571 5.78608 27.0571 5.82305C27.0204 5.84154 26.9837 5.86002 26.947 5.87851C26.8003 5.95245 26.6719 6.00791 26.5618 6.06337C26.4517 6.13731 26.3417 6.19277 26.2316 6.24823C25.8464 6.47006 25.6262 6.58097 25.6262 6.58097C25.6262 6.58097 25.4061 6.71037 25.0209 6.91372C24.6357 7.13555 24.1037 7.48678 23.4616 7.87499C22.1959 8.70686 20.5449 9.88996 19.0224 11.2209C17.4998 12.5519 16.1057 14.0123 15.1334 15.14C15.005 15.2878 14.8949 15.4173 14.7849 15.5467C14.6748 15.6761 14.5647 15.8055 14.473 15.9349C14.2712 16.1752 14.1061 16.3785 13.9777 16.5449C13.831 16.7113 13.7393 16.8592 13.6659 16.9516C13.5925 17.044 13.5558 17.0995 13.5558 17.0995C13.5558 17.0995 13.4091 17.3028 13.1522 17.654C13.0238 17.8389 12.8587 18.0423 12.6936 18.3011C12.5285 18.5599 12.3451 18.8371 12.125 19.1514C12.0149 19.3178 11.9048 19.4657 11.7948 19.632C11.6847 19.7984 11.593 19.9833 11.4646 20.1681C11.2445 20.5379 11.006 20.9261 10.7859 21.3328C10.5657 21.7394 10.3456 22.1646 10.1071 22.6083C10.0521 22.7192 9.99706 22.8301 9.92368 22.941C9.86865 23.0519 9.81362 23.1629 9.77693 23.2738C9.66687 23.4956 9.57515 23.7359 9.46508 23.9578C8.6396 25.7694 7.94252 27.6365 7.55729 29.0784C7.50226 29.2632 7.44723 29.4296 7.41054 29.596C7.35551 29.7623 7.30047 29.9102 7.28213 30.0581C7.20875 30.3539 7.15372 30.6127 7.09869 30.816C7.00697 31.2412 6.93359 31.4815 6.93359 31.4815C6.93359 31.4815 6.93359 31.537 6.8969 31.6479C6.86022 31.7588 6.84187 31.9252 6.80518 32.147C6.7685 32.3689 6.71346 32.6277 6.65843 32.9234C6.6034 33.2192 6.53002 33.552 6.49333 33.9217C6.4383 34.2914 6.38327 34.6981 6.32824 35.1233C6.32824 35.2342 6.29155 35.3451 6.29155 35.4375C6.29155 35.5484 6.2732 35.6594 6.25486 35.7703C6.23652 35.9921 6.21817 36.2139 6.19983 36.4542C6.10811 37.3785 6.10811 38.3768 6.07142 39.3565C6.10811 40.3548 6.10811 41.3345 6.19983 42.2588C6.19983 42.4992 6.23652 42.721 6.25486 42.9428C6.25486 43.0537 6.25486 43.1646 6.29155 43.2756C6.29155 43.3865 6.32824 43.4974 6.32824 43.5898C6.38327 44.015 6.4383 44.4217 6.49333 44.7729C6.53002 45.1426 6.6034 45.4754 6.65843 45.7712C6.71346 46.0669 6.7685 46.3257 6.80518 46.5476C6.84187 46.7509 6.87856 46.9358 6.8969 47.0467C6.91525 47.1576 6.93359 47.2131 6.93359 47.2131C6.93359 47.2131 6.98862 47.4534 7.09869 47.8786C7.15372 48.1004 7.20875 48.3407 7.28213 48.6365C7.31882 48.7844 7.35551 48.9323 7.41054 49.0986C7.44723 49.265 7.50226 49.4314 7.55729 49.6162C7.94252 51.0581 8.6396 52.9252 9.46508 54.7368C9.57515 54.9587 9.68521 55.199 9.77693 55.4208C9.83196 55.5317 9.887 55.6427 9.92368 55.7536C9.97872 55.8645 10.0337 55.9754 10.1071 56.0863C10.3273 56.5115 10.5657 56.9552 10.7859 57.3618C11.0243 57.7685 11.2628 58.1567 11.4646 58.5265C11.5747 58.7113 11.6847 58.8962 11.7948 59.0626C11.9048 59.2289 12.0149 59.3953 12.125 59.5432C12.3268 59.8574 12.5102 60.1347 12.6936 60.3935C12.8587 60.6523 13.0238 60.8557 13.1522 61.0405C13.4091 61.3918 13.5558 61.5951 13.5558 61.5951C13.5558 61.5951 13.5925 61.6506 13.6659 61.743C13.7393 61.8354 13.831 61.9833 13.9777 62.1497C14.1245 62.3161 14.2896 62.5194 14.473 62.7597C14.5647 62.8707 14.6748 63.0001 14.7849 63.1295C14.8949 63.2589 15.005 63.4067 15.1334 63.5361C16.124 64.6823 17.5181 66.1242 19.0224 67.4552C20.5449 68.7862 22.1959 69.9693 23.4616 70.8011C24.1037 71.2078 24.6357 71.5406 25.0209 71.7624C25.4061 71.9842 25.6262 72.0951 25.6262 72.0951C25.6262 72.0951 25.8464 72.2245 26.2316 72.4279C26.3233 72.4833 26.4334 72.5388 26.5618 72.6127C26.6902 72.6682 26.8186 72.7421 26.947 72.7976C27.2222 72.927 27.534 73.0934 27.8826 73.2598C29.2584 73.9068 31.1295 74.7201 33.0923 75.3117C33.5693 75.4781 34.0645 75.6075 34.5598 75.7369C34.7983 75.8108 35.0368 75.8663 35.2753 75.9402C35.5137 76.0142 35.7522 76.0511 35.9907 76.1066C36.4493 76.2175 36.9079 76.3099 37.3481 76.4024C37.7701 76.4763 38.192 76.5502 38.5589 76.6057C38.7423 76.6427 38.9257 76.6796 39.0908 76.6981C39.2559 76.7351 39.421 76.7351 39.5861 76.7721C39.898 76.809 40.1548 76.846 40.3933 76.8645C40.8335 76.92 41.0903 76.9569 41.0903 76.9569L41.127 76.5687C41.127 76.5687 40.8702 76.5318 40.43 76.4763L40.3933 76.5687Z" fill="#B7926A"/>
<path d="M59.6002 75.7185C59.8387 75.7185 60.0955 75.7185 60.3524 75.774C60.4257 75.774 60.4808 75.7924 60.5541 75.8109C60.6275 75.8109 60.6825 75.8294 60.7559 75.8479C60.8843 75.8664 61.0311 75.9034 61.1778 75.9403C61.7648 76.1067 62.3885 76.3655 63.0306 76.6428C63.6543 76.9201 64.278 77.2343 64.8467 77.5116C65.4153 77.8074 65.9106 78.0847 66.2592 78.2696C66.6077 78.4544 66.8095 78.5838 66.8095 78.5838C66.8095 78.5838 66.7545 78.6023 66.6444 78.6393C66.5343 78.6762 66.3876 78.7317 66.1858 78.7872C65.7822 78.8981 65.2319 79.046 64.6082 79.1754C64.4614 79.2123 64.2963 79.2493 64.1312 79.2678C63.9661 79.2863 63.7827 79.3048 63.6176 79.3233C63.2691 79.3602 62.9205 79.3972 62.572 79.3972C61.8749 79.4342 61.1595 79.3417 60.5541 79.1754C59.3434 78.8426 58.5179 78.0847 58.0043 77.4562C57.4907 76.8277 57.2705 76.2916 57.2705 76.2916C57.2705 76.2916 57.6925 76.0143 58.3712 75.8664C58.7197 75.774 59.1233 75.7 59.6002 75.7V75.7185Z" fill="#B7926A"/>
<path d="M57.7295 70.8566C58.023 70.3945 58.3898 70.0063 58.7751 69.6181C58.9769 69.4332 59.1786 69.2484 59.3804 69.082C59.4905 68.9896 59.5822 68.9156 59.6739 68.8417C59.7656 68.7677 59.8574 68.6938 59.9674 68.6198C60.3343 68.3241 60.6829 68.0838 60.9397 67.9359C61.1781 67.7695 61.3432 67.6771 61.3432 67.6771C61.3432 67.6771 61.3432 67.8989 61.3432 68.2686C61.3432 68.6383 61.2882 69.119 61.2148 69.692C61.1415 70.2466 61.013 70.8936 60.8296 71.5037C60.6462 72.0952 60.4077 72.6683 60.1142 73.1489C60.0408 73.2783 59.9674 73.3892 59.8757 73.5001C59.839 73.5556 59.8023 73.611 59.7473 73.648C59.7106 73.7035 59.6739 73.7404 59.6189 73.7959C59.4538 73.9623 59.2704 74.1287 59.0869 74.2581C58.9035 74.3875 58.72 74.4984 58.5366 74.5723C58.3532 74.6647 58.1881 74.7387 58.023 74.7757C57.3626 74.9605 56.8856 74.942 56.8856 74.942C56.8856 74.942 56.8122 74.369 56.8856 73.5926C56.9223 73.2044 56.9957 72.7607 57.1424 72.2985C57.1791 72.1876 57.2158 72.0767 57.2525 71.9473C57.2892 71.8364 57.3442 71.707 57.3993 71.5961C57.491 71.3558 57.6194 71.1339 57.7661 70.8936L57.7295 70.8566Z" fill="#B7926A"/>
<path d="M67.1402 72.2062C67.1402 72.2062 67.2503 72.1137 67.3237 72.0398C67.4704 71.9104 67.7089 71.7255 68.0208 71.5407C68.1675 71.4482 68.351 71.3743 68.5344 71.2819C68.7178 71.2079 68.938 71.134 69.1581 71.06C69.5984 70.9306 70.1303 70.8567 70.7357 70.8567C71.0475 70.8567 71.3594 70.8752 71.6896 70.9121C72.0198 70.9491 72.3683 70.9861 72.6985 71.0415C73.0471 71.097 73.3956 71.1709 73.7258 71.2264C74.056 71.3003 74.3862 71.3558 74.698 71.4297C75.3217 71.5592 75.872 71.6886 76.2573 71.781C76.6425 71.8734 76.8993 71.9474 76.8993 71.9474C76.8993 71.9474 76.6975 72.0952 76.349 72.2986C76.1839 72.4095 75.9638 72.5389 75.7436 72.6683C75.6152 72.7423 75.5052 72.8162 75.3768 72.8716C75.2483 72.9456 75.1016 73.0011 74.9548 73.075C74.6613 73.2044 74.3495 73.3523 74.0376 73.4817C73.8725 73.5371 73.7074 73.6111 73.5423 73.6665C73.469 73.7035 73.3772 73.722 73.3039 73.759C73.2121 73.7775 73.1388 73.8144 73.047 73.8329C72.3683 74.0178 71.6712 74.1472 71.0475 74.1472C69.7635 74.1102 68.7729 73.6296 68.1125 73.1674C67.7823 72.9456 67.5255 72.7053 67.342 72.5204C67.1769 72.354 67.0852 72.2246 67.0852 72.2246C67.0852 72.2246 67.0852 72.2062 67.1402 72.1692V72.2062Z" fill="#B7926A"/>
<path d="M68.9188 68.435C68.7537 68.9711 68.5153 69.3963 68.2401 69.7475C68.0934 69.9324 67.9466 70.0803 67.7998 70.1912C67.6531 70.3206 67.5063 70.4315 67.3596 70.524C67.0661 70.7088 66.8093 70.8197 66.6258 70.8937C66.5341 70.9306 66.4424 70.9491 66.4057 70.9676C66.3507 70.9676 66.314 70.9861 66.314 70.9861C66.314 70.9861 66.2589 70.8567 66.1856 70.6349C66.1122 70.413 66.0205 70.0803 65.9471 69.6921C65.8003 68.9157 65.727 67.8805 66.0388 66.8822C66.1856 66.3646 66.424 65.8655 66.6992 65.4034C66.9744 64.9412 67.2679 64.4975 67.5614 64.1278C67.7081 63.943 67.8365 63.7581 67.9649 63.6102C68.0934 63.4623 68.2034 63.3144 68.2951 63.2035C68.4969 62.9817 68.607 62.8523 68.607 62.8523C68.607 62.8523 68.662 63.0556 68.7537 63.4069C68.8271 63.7581 68.9372 64.2572 69.0289 64.8118C69.0656 65.0891 69.1023 65.4034 69.1206 65.7176C69.139 66.0134 69.1573 66.3276 69.139 66.6419C69.139 66.9562 69.1206 67.2704 69.0839 67.5662C69.0472 67.862 68.9922 68.1578 68.9188 68.435Z" fill="#B7926A"/>
<path d="M75.9263 65.163C76.0363 64.9966 76.2014 64.7563 76.4582 64.4975C76.6967 64.2387 77.0269 63.9799 77.4121 63.7396C77.7974 63.4993 78.2743 63.2774 78.8613 63.1111C79.0631 63.0556 79.2649 63.0186 79.485 62.9632C79.7052 62.9262 79.9069 62.8892 80.1454 62.8523C81.2644 62.6859 82.5118 62.6119 83.4657 62.5565C84.4196 62.501 85.1167 62.4825 85.1167 62.4825C85.1167 62.4825 84.8782 62.7783 84.4746 63.222C84.0894 63.6656 83.484 64.2017 82.8237 64.7378C82.7136 64.8118 82.6219 64.9042 82.5118 64.9781C82.4568 65.0151 82.4017 65.0521 82.3467 65.0891C82.2917 65.126 82.2366 65.163 82.1816 65.2C81.9615 65.3479 81.723 65.4773 81.5029 65.6067C81.2644 65.7361 81.0443 65.847 80.8058 65.9394C80.5673 66.0318 80.3472 66.1243 80.1087 66.1797C78.8613 66.494 77.779 66.2907 77.0086 66.0318C76.2198 65.7546 75.7612 65.4033 75.7612 65.4033C75.7612 65.4033 75.8162 65.2924 75.9263 65.126V65.163Z" fill="#B7926A"/>
<path d="M75.5043 63.7027C75.2842 63.9615 75.0641 64.1463 74.899 64.2572C74.7339 64.3681 74.6238 64.4236 74.6238 64.4236C74.6238 64.4236 74.2569 63.9799 73.89 63.2775C73.5232 62.575 73.1563 61.5953 73.1746 60.5416C73.1746 60.1534 73.2113 59.7467 73.2847 59.3769C73.3214 59.1921 73.3764 58.9887 73.4314 58.8039C73.4865 58.619 73.5232 58.4342 73.5965 58.2493C73.6883 57.935 73.7983 57.6393 73.9084 57.3805C73.9451 57.3065 73.9634 57.2511 74.0001 57.1771C74.0184 57.1217 74.0551 57.0477 74.0735 56.9923C74.1285 56.8629 74.1652 56.7519 74.2019 56.6595C74.3853 56.2528 74.5137 55.994 74.5137 55.994C74.5137 55.994 74.8623 56.5116 75.2475 57.288C75.3392 57.4914 75.4493 57.6947 75.5594 57.9166C75.6144 58.0275 75.6511 58.1384 75.7061 58.2678C75.7611 58.3787 75.7978 58.5081 75.8529 58.619C76.0363 59.0997 76.1831 59.6173 76.2931 60.1349C76.3298 60.3382 76.3665 60.5231 76.3848 60.7264C76.4032 60.9113 76.4215 61.0961 76.4215 61.281C76.4215 61.8356 76.3115 62.3162 76.1464 62.7229C75.9813 63.1296 75.7428 63.4438 75.5227 63.7027H75.5043Z" fill="#B7926A"/>
<path d="M84.1808 56.8073C83.9423 56.8073 83.7222 56.8073 83.502 56.8073C82.6765 56.7519 82.1262 56.5485 82.1262 56.5485C82.1262 56.5485 82.1262 56.4376 82.1996 56.2343C82.2363 56.1418 82.273 56.0309 82.328 55.9015C82.383 55.7721 82.4381 55.6242 82.5298 55.4764C82.6765 55.1621 82.915 54.8293 83.2269 54.4781C83.3002 54.4042 83.3736 54.3117 83.4837 54.2193C83.5754 54.1269 83.6671 54.0529 83.7588 53.9605C83.9606 53.7941 84.1808 53.6278 84.4376 53.4799C84.6944 53.332 84.9879 53.1841 85.2814 53.0362C85.5749 52.8883 85.8868 52.7589 86.1986 52.611C86.8407 52.3522 87.501 52.1119 88.1064 51.8901C88.6934 51.6867 89.2254 51.5019 89.6106 51.3725C89.9958 51.2431 90.2343 51.1691 90.2343 51.1691C90.2343 51.1691 90.1426 51.391 89.9775 51.7607C89.9041 51.9455 89.7941 52.1674 89.6657 52.4077C89.5372 52.648 89.3905 52.9068 89.2254 53.1656C89.0603 53.4244 88.8769 53.7202 88.6751 53.9975C88.62 54.0714 88.5833 54.1269 88.5283 54.2008C88.4733 54.2748 88.4182 54.3302 88.3632 54.4042C88.2532 54.5336 88.1431 54.663 88.033 54.7924C87.7946 55.0512 87.5561 55.2915 87.2993 55.5133C87.1709 55.6242 87.0424 55.7352 86.914 55.8276C86.7856 55.92 86.6389 56.0124 86.5105 56.0864C85.9601 56.4006 85.4098 56.5855 84.8962 56.6964C84.6394 56.7519 84.3825 56.7704 84.1624 56.7889L84.1808 56.8073Z" fill="#B7926A"/>
<path d="M81.705 53.8311C81.6499 54.2563 81.5399 54.6445 81.3931 54.9403C81.3197 55.0882 81.2464 55.236 81.173 55.347C81.0996 55.4579 81.0262 55.5688 80.9528 55.6427C80.8244 55.7906 80.7327 55.883 80.7327 55.883C80.7327 55.883 80.2558 55.5503 79.7054 54.9772C79.577 54.8293 79.4303 54.6815 79.2835 54.4966C79.1368 54.3117 78.99 54.1269 78.8616 53.9235C78.6048 53.5168 78.3663 53.0547 78.2196 52.5556C78.1829 52.4262 78.1462 52.2968 78.1279 52.1674C78.0912 52.038 78.0728 51.9086 78.0545 51.7607C78.0178 51.5019 77.9811 51.2246 77.9811 50.9658C77.9811 50.4297 77.9811 49.9121 77.9994 49.4499C77.9994 49.2096 78.0361 49.0063 78.0728 48.8029C78.0728 48.5996 78.1095 48.4332 78.1279 48.2853C78.1645 47.9896 78.2012 47.8232 78.2012 47.8232C78.2012 47.8232 78.3663 47.9711 78.6415 48.2114C78.9166 48.4702 79.2652 48.8214 79.6688 49.2651C80.0356 49.6903 80.4392 50.2079 80.7694 50.744C80.9345 51.0028 81.0996 51.28 81.2464 51.5573C81.3748 51.8346 81.4848 52.1119 81.5582 52.3707C81.6316 52.6295 81.6866 52.8883 81.705 53.1286C81.705 53.258 81.705 53.369 81.7233 53.4799C81.7233 53.5353 81.7233 53.5908 81.7233 53.6462C81.7233 53.7017 81.7233 53.7572 81.7233 53.8126L81.705 53.8311Z" fill="#B7926A"/>
<path d="M89.0051 45.7712C88.7666 45.9376 88.5281 46.067 88.2896 46.1964C87.8127 46.4182 87.3541 46.5661 86.9505 46.6401C86.1434 46.8065 85.5564 46.751 85.5564 46.751C85.5564 46.751 85.483 46.2704 85.6481 45.6049C85.6848 45.4385 85.7398 45.2536 85.7948 45.0688C85.8499 44.8839 85.9416 44.6806 86.0333 44.4772C86.125 44.2739 86.2534 44.052 86.4185 43.8487C86.4919 43.7378 86.5653 43.6269 86.657 43.5344C86.712 43.479 86.7487 43.4235 86.8038 43.3681C86.8405 43.3126 86.8955 43.2572 86.9505 43.2017C87.7393 42.3329 89.0234 41.4455 90.0507 40.7246C90.5643 40.3733 91.0229 40.0591 91.3715 39.8373C91.7016 39.6154 91.9218 39.486 91.9218 39.486C91.9218 39.486 91.8851 39.7263 91.8301 40.1145C91.7567 40.5027 91.665 41.0573 91.4999 41.6489C91.3164 42.2589 91.0779 42.9059 90.7844 43.5344C90.7111 43.6823 90.6377 43.8487 90.546 43.9966C90.4542 44.1445 90.3625 44.2924 90.2708 44.4218C90.0874 44.6991 89.8856 44.9579 89.6655 45.1797C89.4453 45.4015 89.2252 45.6049 88.9867 45.7712H89.0051Z" fill="#B7926A"/>
<path d="M84.0716 46.4737C84.0716 46.4737 83.5213 46.2889 82.8242 45.8637C82.4757 45.6603 82.0905 45.383 81.7419 45.0688C81.5585 44.9024 81.375 44.736 81.2283 44.5327C81.0448 44.3478 80.8981 44.126 80.733 43.9042C80.5862 43.6823 80.4578 43.442 80.3478 43.2017C80.2377 42.9614 80.146 42.7026 80.0543 42.4438C79.8708 41.9447 79.7424 41.4271 79.669 40.9649C79.559 40.5028 79.4856 40.0961 79.4489 39.8188C79.4122 39.523 79.3939 39.3566 79.3939 39.3566C79.3939 39.3566 79.5957 39.4491 79.9075 39.6339C80.2377 39.8003 80.678 40.0591 81.1549 40.3918C81.6319 40.7061 82.1822 41.0943 82.6408 41.5195C83.1177 41.9447 83.5396 42.4068 83.8515 42.8874C84.0166 43.1278 84.1267 43.3496 84.2 43.5899C84.2918 43.8117 84.3468 44.0521 84.3835 44.2554C84.4202 44.4772 84.4385 44.6806 84.4385 44.8654C84.4385 45.0503 84.4385 45.2352 84.3835 45.4015C84.2734 46.067 84.0349 46.4737 84.0349 46.4737H84.0716Z" fill="#B7926A"/>
<path d="M90.2892 31.1673C90.2525 31.4262 90.2158 31.685 90.1424 31.9253C90.0324 32.4244 89.8856 32.905 89.6472 33.3117C89.3536 33.8663 88.9868 34.31 88.6015 34.6427C88.2163 34.9939 87.8311 35.2527 87.4459 35.4376C86.7121 35.8258 86.1251 35.9367 86.1251 35.9367C86.1251 35.9367 86.0884 35.8258 86.0334 35.6225C85.9967 35.4191 85.905 35.1418 85.8866 34.7906C85.8499 34.4394 85.8683 34.0327 85.96 33.589C86.0334 33.1453 86.1801 32.6462 86.4553 32.1101C86.547 31.9438 86.6571 31.7589 86.7671 31.574C86.8222 31.4816 86.8772 31.3892 86.9322 31.2967C86.9873 31.2043 87.0606 31.1119 87.1157 31.0195C87.4275 30.5573 87.7761 30.0952 88.1246 29.6515C88.4731 29.2078 88.8217 28.7827 89.1152 28.4314C89.7205 27.7105 90.1608 27.1929 90.1608 27.1929C90.1608 27.1929 90.2342 27.5626 90.3075 28.1357C90.3442 28.4314 90.3626 28.7642 90.3809 29.1524C90.3809 29.5221 90.3809 29.9288 90.3809 30.354C90.3809 30.6128 90.3442 30.8716 90.3075 31.1304L90.2892 31.1673Z" fill="#B7926A"/>
<path d="M80.6775 34.5133C80.6775 34.5133 80.5307 34.3839 80.4574 34.3099C80.384 34.236 80.3106 34.162 80.2372 34.0881C80.0905 33.9402 79.9621 33.7923 79.852 33.626C79.7236 33.4781 79.6135 33.3117 79.5035 33.1453C79.3934 32.9789 79.2833 32.8126 79.1916 32.6647C79.0082 32.3874 78.8614 32.1101 78.733 31.8513C78.6596 31.7219 78.6046 31.5925 78.5496 31.4816C78.4946 31.3707 78.4395 31.2598 78.3845 31.1673C78.1827 30.7791 78.0726 30.5018 78.0726 30.5018C78.0726 30.5018 78.6963 30.5943 79.5769 30.8346C79.797 30.89 80.0355 30.964 80.2739 31.0379C80.5124 31.1119 80.7509 31.2043 80.9894 31.2967C81.4846 31.4816 81.9799 31.7219 82.4385 31.9807C82.8054 32.184 83.1173 32.4059 83.3924 32.6462C83.8143 33.0159 84.1262 33.4226 84.328 33.8108C84.5114 34.199 84.6031 34.5872 84.6582 34.92C84.6949 35.2527 84.7132 35.53 84.6582 35.7334C84.6398 35.9367 84.6031 36.0476 84.6031 36.0476C84.6031 36.0476 84.0161 36.0106 83.2457 35.8073C82.4569 35.5855 81.4663 35.1973 80.6592 34.4948L80.6775 34.5133Z" fill="#B7926A"/>
<path d="M85.5939 23.4957C85.3187 23.9394 85.0069 24.2906 84.7134 24.5679C84.1263 25.1225 83.5944 25.3997 83.5944 25.3997C83.5944 25.3997 83.521 25.3073 83.4109 25.1409C83.3009 24.9746 83.1724 24.6973 83.044 24.383C82.9156 24.0688 82.7872 23.6806 82.7505 23.2184C82.7138 22.9966 82.7138 22.7378 82.7322 22.4975C82.7322 22.2387 82.7505 21.9614 82.8056 21.6841C82.8606 21.3883 82.934 21.0925 83.0257 20.7783C83.0624 20.6304 83.1174 20.464 83.1724 20.2976C83.2275 20.1497 83.2825 19.9834 83.3375 19.817C83.5577 19.1885 83.8145 18.5415 84.053 17.9684C84.1814 17.6911 84.2914 17.4138 84.4015 17.1735C84.5116 16.9332 84.6033 16.7114 84.6767 16.545C84.8418 16.1753 84.9335 15.9719 84.9335 15.9719C84.9335 15.9719 85.0435 16.1938 85.227 16.545C85.3187 16.7298 85.3921 16.9517 85.5022 17.192C85.5939 17.4508 85.6856 17.7281 85.7957 18.0239C85.8507 18.1717 85.8874 18.3196 85.9424 18.486C85.9791 18.6524 86.0341 18.8003 86.0708 18.9666C86.1442 19.2994 86.1992 19.6321 86.2543 19.9834C86.3093 20.3161 86.3276 20.6674 86.3276 20.9816C86.3276 21.3144 86.2909 21.6471 86.2359 21.9429C86.1075 22.5529 85.9057 23.0705 85.6306 23.5142L85.5939 23.4957Z" fill="#B7926A"/>
<path d="M77.2287 25.1224C76.9902 24.9746 76.7701 24.8082 76.5499 24.6418C76.3298 24.4754 76.128 24.2906 75.9446 24.1242C75.7611 23.9578 75.5594 23.773 75.3943 23.6066C75.2292 23.4402 75.0824 23.2739 74.9357 23.126C74.8623 23.052 74.8072 22.9781 74.7522 22.9226C74.6972 22.8487 74.6421 22.7932 74.5871 22.7378C74.3853 22.5159 74.2753 22.3865 74.2753 22.3865C74.2753 22.3865 74.4954 22.368 74.8806 22.3311C75.2475 22.3126 75.7795 22.2756 76.3481 22.2941C76.9352 22.2941 77.5772 22.368 78.2376 22.479C78.4027 22.5159 78.5678 22.5344 78.7145 22.5714C78.8613 22.6084 79.008 22.6453 79.1731 22.7008C79.4667 22.7932 79.7602 22.8856 80.017 23.0151C80.2738 23.126 80.4939 23.2739 80.7141 23.4033C80.9158 23.5511 81.0809 23.7175 81.246 23.8654C81.5395 24.1982 81.7597 24.5309 81.9064 24.8267C82.0532 25.1224 82.1082 25.3997 82.1449 25.6031C82.1816 25.8064 82.1816 25.9173 82.1816 25.9173C82.1816 25.9173 81.6129 26.0467 80.7874 26.0467C80.3839 26.0467 79.9253 26.0283 79.43 25.9358C78.9347 25.8619 78.421 25.714 77.9257 25.4922C77.6873 25.3813 77.4488 25.2334 77.2103 25.0855L77.2287 25.1224Z" fill="#B7926A"/>
<path d="M79.7964 14.0309C79.6496 14.53 79.4662 14.9552 79.246 15.2879C78.8241 15.9719 78.4022 16.3786 78.4022 16.3786C78.4022 16.3786 77.9803 16.1013 77.5584 15.5468C77.4483 15.3989 77.3383 15.251 77.2465 15.0661C77.1365 14.8997 77.0447 14.6964 76.953 14.4931C76.7696 14.0679 76.6412 13.5688 76.5861 12.9772C76.5311 12.4041 76.5311 11.7386 76.5861 11.0547C76.6412 10.3707 76.6962 9.70519 76.7696 9.09516C76.843 8.48512 76.9163 7.94903 76.9714 7.54234C77.0264 7.15414 77.0631 6.91382 77.0631 6.91382C77.0631 6.91382 77.1181 6.95079 77.1915 7.04322C77.2649 7.13565 77.3749 7.24657 77.5033 7.41294C77.7602 7.7272 78.1087 8.17086 78.4572 8.68847C78.8058 9.22456 79.1543 9.8346 79.4295 10.4446C79.7046 11.0732 79.8881 11.7386 79.9431 12.3487C79.9431 12.4966 79.9615 12.6445 79.9615 12.7923C79.9615 12.9402 79.9615 13.0881 79.9431 13.2175C79.9064 13.4948 79.8514 13.7536 79.7964 14.0124V14.0309Z" fill="#B7926A"/>
<path d="M72.1839 17.7651C72.0555 17.7281 71.9271 17.6726 71.7987 17.6172C71.7253 17.5987 71.6703 17.5617 71.6153 17.5432C71.5419 17.5063 71.4869 17.4878 71.4135 17.4693C70.8999 17.2659 70.4229 17.0071 70.0193 16.7668C69.5974 16.545 69.2489 16.3232 68.9921 16.1568C68.8637 16.0644 68.7719 16.0089 68.7169 15.9534C68.6435 15.9165 68.6068 15.8795 68.6068 15.8795C68.6068 15.8795 68.6619 15.861 68.7536 15.824C68.8453 15.7871 68.9921 15.7316 69.1572 15.6762C69.5057 15.5652 70.001 15.4174 70.5697 15.2695C70.8632 15.1955 71.1567 15.1401 71.4685 15.0846C71.6153 15.0476 71.7804 15.0291 71.9455 15.0107C72.0922 14.9922 72.2573 14.9737 72.4224 14.9552C73.0645 14.8997 73.7065 14.8997 74.2752 14.9922C74.8438 15.0846 75.3024 15.288 75.6877 15.5098C75.8711 15.6207 76.0546 15.7501 76.2013 15.8795C76.3481 16.0089 76.4765 16.1383 76.5865 16.2677C77.0268 16.7853 77.1735 17.229 77.1735 17.229C77.1735 17.229 76.6599 17.5063 75.8711 17.7281C75.4859 17.839 75.0273 17.9314 74.532 17.9869C74.0367 18.0424 73.5231 18.0239 72.9727 17.9314C72.6976 17.8945 72.4408 17.8205 72.1656 17.7281L72.1839 17.7651Z" fill="#B7926A"/>
<path d="M70.6795 8.3742C70.5878 8.59603 70.5144 8.72543 70.5144 8.72543C70.5144 8.72543 70.4777 8.72543 70.441 8.68846C70.386 8.66997 70.3126 8.633 70.2209 8.59603C70.0374 8.5036 69.7623 8.3742 69.4871 8.15237C68.9368 7.7087 68.2581 7.0617 67.8178 5.95254C67.6711 5.58282 67.5426 5.19462 67.4142 4.76944C67.2675 4.23335 67.1574 3.67877 67.0473 3.12419C66.9373 2.5881 66.8456 2.07049 66.7722 1.60835C66.6254 0.684048 66.5337 0.0185547 66.5337 0.0185547C66.5337 0.0185547 66.8639 0.2219 67.3592 0.554647C67.5977 0.72102 67.8912 0.924366 68.1847 1.16468C68.4782 1.405 68.79 1.68229 69.0835 1.97806C69.267 2.16292 69.4504 2.34778 69.6339 2.53264C69.6706 2.5881 69.7256 2.62507 69.7623 2.68053C69.799 2.73599 69.8357 2.77296 69.8907 2.82842C69.9641 2.93933 70.0558 3.03176 70.1292 3.14268C70.441 3.56785 70.6978 3.99303 70.8629 4.43669C70.9913 4.71398 71.0647 5.00976 71.1014 5.28705C71.1564 5.56434 71.1748 5.82314 71.1748 6.08194C71.1748 6.59955 71.1014 7.04321 71.0097 7.43142C70.8996 7.81962 70.7895 8.13388 70.6795 8.35571V8.3742Z" fill="#B7926A"/>
<path d="M63.3605 11.5538C63.0303 11.4798 62.7185 11.4059 62.4433 11.332C62.1498 11.258 61.893 11.2026 61.6729 11.1286C61.2326 10.9992 60.9758 10.8883 60.9758 10.8883C60.9758 10.8883 61.4711 10.5186 62.2232 10.0564C62.5901 9.8346 63.0487 9.5758 63.5256 9.33548C64.0026 9.11365 64.5162 8.9103 65.0299 8.74393C65.4151 8.63301 65.8187 8.54058 66.1855 8.48513C67.3229 8.37421 68.2217 8.70696 68.7721 9.09516C69.0472 9.28002 69.2673 9.48337 69.3958 9.63125C69.4691 9.7052 69.5242 9.76066 69.5425 9.79763C69.5792 9.8346 69.5975 9.87157 69.5975 9.87157C69.5975 9.87157 69.4875 9.964 69.304 10.1304C69.1206 10.2783 68.8271 10.4816 68.4785 10.7034C68.13 10.9253 67.7081 11.1286 67.2495 11.3135C67.0294 11.4059 66.7725 11.4798 66.5341 11.5353C66.2773 11.5908 66.0204 11.6462 65.7453 11.6832C64.9381 11.7756 64.1126 11.6462 63.3422 11.5168L63.3605 11.5538Z" fill="#B7926A"/>
<path d="M51.529 76.5688C51.7491 76.5504 52.0243 76.5134 52.3178 76.4764C52.4645 76.4579 52.6296 76.4395 52.8131 76.4025C52.9781 76.3655 53.1616 76.347 53.345 76.3101C53.7119 76.2546 54.1338 76.1806 54.5557 76.1067C54.9777 76.0143 55.4179 75.9218 55.8949 75.8109C56.1333 75.7555 56.3535 75.7185 56.5919 75.6446C56.8304 75.5891 57.0505 75.5152 57.3074 75.4412C57.7843 75.3118 58.2796 75.1824 58.7565 75.016C60.6827 74.4245 62.5538 73.6296 63.9112 72.9826C64.2414 72.8162 64.5533 72.6683 64.8284 72.5204C64.9569 72.4465 65.0853 72.391 65.2137 72.3356C65.3237 72.2801 65.4338 72.2062 65.5255 72.1692C65.9108 71.9474 66.1309 71.8365 66.1309 71.8365C66.1309 71.8365 66.351 71.7071 66.7362 71.5037C67.1215 71.2819 67.6351 70.9491 68.2771 70.5424C69.5245 69.7106 71.1755 68.546 72.6614 67.2335C74.1656 65.921 75.5414 64.479 76.5136 63.3329C76.6421 63.2035 76.7521 63.0556 76.8622 62.9262C76.9723 62.7968 77.064 62.6674 77.174 62.5565C77.3575 62.3162 77.5226 62.1128 77.6693 61.9465C77.8161 61.7801 77.9078 61.6322 77.9812 61.5398C78.0546 61.4474 78.0912 61.3919 78.0912 61.3919C78.0912 61.3919 78.238 61.1886 78.4948 60.8373C78.6232 60.671 78.7883 60.4491 78.9534 60.2088C79.1185 59.95 79.302 59.6727 79.5037 59.3584C79.6138 59.2106 79.7239 59.0442 79.8339 58.8778C79.944 58.7114 80.0357 58.5266 80.1458 58.3417C80.3659 57.972 80.586 57.5838 80.8245 57.1956C81.0446 56.7889 81.2648 56.3637 81.4849 55.9385C81.5399 55.8276 81.595 55.7167 81.65 55.6058C81.705 55.4949 81.7417 55.384 81.7968 55.2731C81.8885 55.0512 81.9985 54.8294 82.1086 54.6076C82.9341 52.8144 83.6128 50.9658 83.9981 49.5424C84.0531 49.3576 84.1081 49.1912 84.1448 49.0433C84.1998 48.8769 84.2365 48.729 84.2732 48.5811C84.3466 48.2854 84.4016 48.0266 84.4567 47.8232C84.5667 47.398 84.6034 47.1577 84.6034 47.1577C84.6034 47.1577 84.6034 47.1023 84.6401 46.9914C84.6768 46.8804 84.6951 46.7141 84.7318 46.4922C84.7685 46.2889 84.8235 46.0301 84.8786 45.7343C84.9336 45.4385 85.007 45.1058 85.0437 44.7361C85.0987 44.3664 85.1354 43.9781 85.1904 43.553C85.1904 43.4421 85.2271 43.3496 85.2271 43.2387C85.2271 43.1278 85.2271 43.0169 85.2638 42.906C85.2638 42.6841 85.3005 42.4623 85.3188 42.222C85.4105 41.2977 85.4105 40.3179 85.4472 39.3382C85.4105 38.3584 85.4105 37.3787 85.3188 36.4544C85.3188 36.2325 85.2821 35.9922 85.2638 35.7704C85.2638 35.6595 85.2638 35.5486 85.2271 35.4376C85.2271 35.3267 85.1904 35.2158 85.1904 35.1234C85.1354 34.7167 85.0804 34.31 85.0437 33.9403C85.007 33.5706 84.9336 33.2378 84.8786 32.942C84.8235 32.6463 84.7868 32.3875 84.7318 32.1841C84.6951 31.9808 84.6584 31.8144 84.6401 31.7035C84.6217 31.5926 84.6034 31.5371 84.6034 31.5371C84.6034 31.5371 84.5484 31.2968 84.4567 30.8901C84.4016 30.6868 84.3466 30.428 84.2732 30.1322C84.2365 29.9843 84.1998 29.8364 84.1448 29.67C84.0898 29.5037 84.0531 29.3373 83.9981 29.1709C83.6128 27.7475 82.9341 25.8989 82.1086 24.1058C81.9985 23.8839 81.8885 23.6621 81.7968 23.4403C81.7417 23.3294 81.6867 23.2184 81.65 23.1075C81.595 22.9966 81.5399 22.8857 81.4849 22.7748C81.2464 22.3496 81.0263 21.9244 80.8245 21.5177C80.586 21.111 80.3476 20.7413 80.1458 20.3716C80.0357 20.1867 79.9257 20.0019 79.8339 19.8355C79.7239 19.6691 79.6138 19.5028 79.5037 19.3549C79.302 19.0406 79.1185 18.7633 78.9534 18.5045C78.7883 18.2457 78.6232 18.0424 78.4948 17.876C78.238 17.5248 78.0912 17.3214 78.0912 17.3214C78.0912 17.3214 78.0546 17.266 77.9812 17.1735C77.9078 17.0811 77.8161 16.9332 77.6693 16.7668C77.5409 16.6005 77.3575 16.3971 77.174 16.1568C77.0823 16.0459 76.9723 15.9165 76.8622 15.7871C76.7521 15.6577 76.6421 15.5098 76.5136 15.3804C75.5414 14.2528 74.1656 12.8109 72.6614 11.4984C71.1572 10.1674 69.5245 9.02124 68.2771 8.18937C67.6351 7.80117 67.1215 7.44993 66.7362 7.2281C66.351 7.00627 66.1309 6.89536 66.1309 6.89536C66.1309 6.89536 65.9108 6.76595 65.5255 6.56261C65.4338 6.50715 65.3237 6.45169 65.2137 6.37775C65.0853 6.32229 64.9752 6.24835 64.8284 6.19289C64.7367 6.15592 64.645 6.10046 64.5349 6.045H64.5166C64.2781 6.06349 63.9296 6.08197 63.526 6.045C62.7005 6.00803 61.6549 5.84166 60.7194 5.32405C60.2424 5.06525 59.7838 4.7325 59.3802 4.36278C59.1785 4.17792 58.9767 3.99306 58.7932 3.8082C58.6098 3.62334 58.4447 3.43849 58.2796 3.27211C57.9861 2.92088 57.7109 2.60662 57.5275 2.3663C57.344 2.14447 57.2523 1.99658 57.2523 1.99658C57.2523 1.99658 57.4725 1.99658 57.8393 1.99658C58.2062 1.99658 58.7199 1.99658 59.3252 2.05204C59.472 2.05204 59.6187 2.07053 59.7838 2.08901C59.9306 2.1075 60.0957 2.12598 60.2424 2.16296C60.5543 2.21841 60.8661 2.27387 61.178 2.34781C61.8017 2.4957 62.4437 2.69905 62.9207 2.97634C63.4159 3.25363 63.8012 3.58637 64.0947 3.91912C64.3698 4.25187 64.5533 4.62159 64.6817 4.93585C64.8101 5.25011 64.8651 5.5274 64.8835 5.71226C64.8835 5.74923 64.8835 5.7862 64.8835 5.82317C64.9202 5.84166 64.9569 5.86014 64.9935 5.87863C65.1403 5.95257 65.2687 6.00803 65.3788 6.06349C65.5072 6.13743 65.5989 6.19289 65.709 6.24835C66.0942 6.47018 66.3143 6.58109 66.3143 6.58109C66.3143 6.58109 66.5344 6.7105 66.9197 6.91384C67.3049 7.13567 67.8369 7.48691 68.4789 7.87511C69.7447 8.70698 71.3956 9.89008 72.9182 11.2211C74.4408 12.5521 75.8349 14.0124 76.8072 15.1401C76.9356 15.288 77.0456 15.4174 77.1557 15.5468C77.2658 15.6762 77.3575 15.8056 77.4675 15.935C77.651 16.1753 77.8344 16.3786 77.9628 16.545C78.1096 16.7114 78.2013 16.8593 78.2747 16.9517C78.3481 17.0441 78.3847 17.0996 78.3847 17.0996C78.3847 17.0996 78.5315 17.3029 78.7883 17.6542C78.9167 17.839 79.0818 18.0424 79.2469 18.3012C79.412 18.56 79.5955 18.8373 79.8156 19.1515C79.9257 19.3179 80.0174 19.4658 80.1458 19.6322C80.2558 19.7985 80.3476 19.9834 80.476 20.1683C80.6961 20.538 80.9346 20.9262 81.1547 21.3329C81.3748 21.7396 81.595 22.1647 81.8334 22.6084C81.8885 22.7193 81.9435 22.8302 81.9985 22.9412C82.0536 23.0521 82.1086 23.163 82.1453 23.2739C82.2554 23.4957 82.3654 23.736 82.4571 23.9579C83.2826 25.7695 83.9797 27.6366 84.3649 29.0785C84.42 29.2633 84.475 29.4297 84.5117 29.5961C84.5667 29.7625 84.6034 29.9103 84.6401 30.0582C84.7135 30.354 84.7685 30.6128 84.8235 30.8162C84.9153 31.2413 84.9703 31.4817 84.9703 31.4817C84.9703 31.4817 84.9703 31.5371 85.007 31.648C85.0437 31.7589 85.062 31.9253 85.0987 32.1471C85.1354 32.369 85.1904 32.6278 85.2455 32.9236C85.3005 33.2193 85.3739 33.5521 85.4105 33.9218C85.4656 34.2915 85.5023 34.6982 85.5573 35.1234C85.5573 35.2343 85.5756 35.3452 85.594 35.4376C85.594 35.5486 85.594 35.6595 85.6307 35.7704C85.6307 35.9922 85.6674 36.2141 85.6857 36.4544C85.7774 37.3787 85.7774 38.3769 85.8141 39.3567C85.7774 40.3549 85.7774 41.3347 85.6857 42.259C85.6674 42.4993 85.649 42.7211 85.6307 42.9429C85.6307 43.0539 85.6307 43.1648 85.594 43.2757C85.594 43.3866 85.5573 43.4975 85.5573 43.5899C85.5023 44.0151 85.4472 44.4218 85.4105 44.773C85.3739 45.1428 85.2821 45.4755 85.2455 45.7713C85.1904 46.0671 85.1354 46.3259 85.0987 46.5477C85.062 46.751 85.0253 46.9359 85.007 47.0468C84.9886 47.1577 84.9703 47.2132 84.9703 47.2132C84.9703 47.2132 84.9153 47.4535 84.8235 47.8787C84.7685 48.1005 84.7135 48.3408 84.6401 48.6366C84.6034 48.7845 84.5667 48.9324 84.5117 49.0988C84.4566 49.2651 84.42 49.4315 84.3649 49.6164C83.9797 51.0583 83.2826 52.9253 82.4571 54.737C82.3471 54.9588 82.237 55.1991 82.1453 55.4209C82.0903 55.5319 82.0352 55.6428 81.9985 55.7537C81.9435 55.8646 81.8885 55.9755 81.8334 56.0864C81.6133 56.5116 81.3748 56.9553 81.1547 57.362C80.9162 57.7687 80.6961 58.1569 80.476 58.5266C80.3659 58.7114 80.2742 58.8963 80.1458 59.0627C80.0357 59.229 79.9257 59.3954 79.8156 59.5433C79.6138 59.8576 79.412 60.1349 79.2469 60.3937C79.0818 60.6525 78.9167 60.8558 78.7883 61.0407C78.5315 61.3919 78.3847 61.5952 78.3847 61.5952C78.3847 61.5952 78.3481 61.6507 78.2747 61.7431C78.2013 61.8356 78.1096 61.9834 77.9628 62.1498C77.8161 62.3162 77.651 62.5195 77.4675 62.7599C77.3575 62.8708 77.2658 63.0002 77.1557 63.1296C77.0456 63.259 76.9356 63.4069 76.8072 63.5363C75.8166 64.6824 74.4224 66.1243 72.9182 67.4553C71.3956 68.7863 69.7447 69.9694 68.4789 70.8012C67.8369 71.2079 67.3049 71.5407 66.9197 71.7625C66.5344 71.9843 66.3143 72.0953 66.3143 72.0953C66.3143 72.0953 66.0942 72.2247 65.709 72.428C65.6172 72.4835 65.5072 72.5389 65.3788 72.6129C65.2687 72.6683 65.1403 72.7423 64.9935 72.7977C64.7184 72.9271 64.4065 73.0935 64.058 73.2599C62.6822 73.9069 60.8111 74.7203 58.8483 75.3118C58.3713 75.4782 57.876 75.6076 57.3991 75.737C57.1606 75.8109 56.9221 75.8664 56.6837 75.9403C56.4452 76.0143 56.2067 76.0512 55.9682 76.1067C55.4913 76.2176 55.051 76.3101 54.6108 76.4025C54.1705 76.4764 53.7669 76.5504 53.4001 76.6058C53.2166 76.6428 53.0332 76.6798 52.8681 76.6983C52.703 76.7352 52.5379 76.7352 52.3728 76.7722C52.0609 76.8092 51.8041 76.8461 51.584 76.8646C51.1437 76.9201 50.8869 76.9571 50.8869 76.9571L50.8502 76.5688C50.8502 76.5688 51.107 76.5319 51.529 76.4764V76.5688Z" fill="#B7926A"/>
<path d="M38.336 39.1637C36.8319 39.1637 35.7142 38.7354 34.983 37.8789C34.2518 37.0223 33.8862 36.0404 33.8862 34.9332C33.8862 33.9931 34.1369 33.1574 34.6382 32.4262C35.1396 31.695 35.8186 31.1205 36.6752 30.7027C37.5526 30.2849 38.5241 30.0759 39.5895 30.0759C41.5115 30.0759 43.0366 30.7445 44.1647 32.0815C45.3138 33.4186 45.8883 35.1839 45.8883 37.3775C45.8883 39.2786 45.4496 41.1588 44.5721 43.0182C43.6947 44.8775 42.4203 46.528 40.749 47.9695C39.0777 49.4319 37.1034 50.5078 34.8263 51.1972C34.7636 51.2181 34.7009 51.1763 34.6382 51.0718C34.5965 50.9674 34.6174 50.8943 34.7009 50.8525C36.6647 50.0586 38.336 48.9514 39.7149 47.5307C41.0937 46.1101 42.1278 44.5642 42.8173 42.8928C43.5276 41.2215 43.8827 39.592 43.8827 38.0042C43.8827 36.897 43.7156 35.7793 43.3813 34.6512C43.0679 33.523 42.5457 32.5829 41.8145 31.8308C41.1042 31.0578 40.1954 30.6713 39.0881 30.6713C38.0853 30.6713 37.3019 30.9952 36.7378 31.6428C36.1738 32.2904 35.8917 33.1888 35.8917 34.3378C35.8917 35.4868 36.1842 36.4374 36.7692 37.1895C37.375 37.9207 38.2316 38.2863 39.3388 38.2863C39.882 38.2863 40.3625 38.2027 40.7803 38.0356C41.1982 37.8684 41.6682 37.5655 42.1905 37.1268C42.2114 37.1059 42.2427 37.0955 42.2845 37.0955C42.3472 37.0955 42.4099 37.1268 42.4725 37.1895C42.5352 37.2521 42.5561 37.3044 42.5352 37.3462C41.4906 38.5579 40.0909 39.1637 38.336 39.1637ZM51.0854 32.3949C50.8138 32.3949 50.6571 32.5411 50.6153 32.8336L49.9572 36.4374C52.8403 36.4583 54.9607 36.991 56.3187 38.0356C57.6766 39.0593 58.3556 40.4799 58.3556 42.2974C58.3556 43.4882 58.0527 44.5642 57.4468 45.5252C56.841 46.5071 55.8904 47.4472 54.5951 48.3455C53.3208 49.2647 51.6181 50.2153 49.4872 51.1972H49.4558C49.3723 51.1972 49.2991 51.145 49.2365 51.0405C49.1947 50.9569 49.2156 50.8943 49.2991 50.8525C51.8688 49.5781 53.6759 48.2828 54.7205 46.9667C55.7651 45.6714 56.2873 44.2926 56.2873 42.8302C56.2873 41.0962 55.7024 39.7487 54.5325 38.7877C53.3625 37.8267 51.6808 37.3462 49.4872 37.3462C49.3827 37.3462 49.2991 37.3148 49.2365 37.2521C49.1738 37.1686 49.1529 37.0746 49.1738 36.9701L50.1766 31.3921C50.1975 31.2459 50.2288 31.1623 50.2706 31.1414C50.3124 31.0996 50.4168 31.0683 50.584 31.0474C53.2163 30.734 54.9816 30.5147 55.88 30.3893C56.7783 30.264 57.3528 30.1386 57.6035 30.0133C57.8751 29.867 58.0631 29.6372 58.1676 29.3238C58.1885 29.2612 58.2511 29.2403 58.3556 29.2612C58.4809 29.2612 58.5332 29.303 58.5123 29.3865L57.8855 31.7055C57.802 31.9353 57.6975 32.092 57.5722 32.1755C57.4677 32.2382 57.2797 32.2695 57.0081 32.2695L51.0854 32.3949Z" fill="#B7926A"/>
</g>
<defs>
<clipPath id="clip0_1_1528">
<rect width="91.9224" height="82.5212" fill="white"/>
</clipPath>
</defs>
</svg>
