<svg width="42" height="80" viewBox="0 0 42 80" fill="none" xmlns="http://www.w3.org/2000/svg">
<path d="M9.60025 75.7185C9.83872 75.7185 10.0955 75.7185 10.3524 75.774C10.4257 75.774 10.4808 75.7924 10.5541 75.8109C10.6275 75.8109 10.6825 75.8294 10.7559 75.8479C10.8843 75.8664 11.0311 75.9034 11.1778 75.9403C11.7648 76.1067 12.3885 76.3655 13.0306 76.6428C13.6543 76.9201 14.278 77.2343 14.8467 77.5116C15.4153 77.8074 15.9106 78.0847 16.2592 78.2696C16.6077 78.4544 16.8095 78.5838 16.8095 78.5838C16.8095 78.5838 16.7545 78.6023 16.6444 78.6393C16.5343 78.6762 16.3876 78.7317 16.1858 78.7872C15.7822 78.8981 15.2319 79.046 14.6082 79.1754C14.4614 79.2123 14.2963 79.2493 14.1312 79.2678C13.9661 79.2863 13.7827 79.3048 13.6176 79.3233C13.2691 79.3602 12.9205 79.3972 12.572 79.3972C11.8749 79.4342 11.1595 79.3417 10.5541 79.1754C9.34342 78.8426 8.51794 78.0847 8.00431 77.4562C7.49067 76.8277 7.27054 76.2916 7.27054 76.2916C7.27054 76.2916 7.69245 76.0143 8.37119 75.8664C8.71972 75.774 9.1233 75.7 9.60025 75.7V75.7185Z" fill="#B7926A"/>
<path d="M7.72945 70.8566C8.02296 70.3945 8.38984 70.0063 8.77507 69.6181C8.97685 69.4332 9.17864 69.2484 9.38042 69.082C9.49049 68.9896 9.58221 68.9156 9.67393 68.8417C9.76565 68.7677 9.85737 68.6938 9.96743 68.6198C10.3343 68.3241 10.6829 68.0838 10.9397 67.9359C11.1781 67.7695 11.3432 67.6771 11.3432 67.6771C11.3432 67.6771 11.3432 67.8989 11.3432 68.2686C11.3432 68.6383 11.2882 69.119 11.2148 69.692C11.1415 70.2466 11.013 70.8936 10.8296 71.5037C10.6462 72.0952 10.4077 72.6683 10.1142 73.1489C10.0408 73.2783 9.96743 73.3892 9.87571 73.5001C9.83903 73.5556 9.80234 73.611 9.74731 73.648C9.71062 73.7035 9.67393 73.7404 9.6189 73.7959C9.4538 73.9623 9.27036 74.1287 9.08692 74.2581C8.90347 74.3875 8.72003 74.4984 8.53659 74.5723C8.35315 74.6647 8.18805 74.7387 8.02296 74.7757C7.36257 74.9605 6.88562 74.942 6.88562 74.942C6.88562 74.942 6.81225 74.369 6.88562 73.5926C6.92231 73.2044 6.99569 72.7607 7.14244 72.2985C7.17913 72.1876 7.21582 72.0767 7.2525 71.9473C7.28919 71.8364 7.34423 71.707 7.39926 71.5961C7.49098 71.3558 7.61939 71.1339 7.76614 70.8936L7.72945 70.8566Z" fill="#B7926A"/>
<path d="M17.1402 72.2062C17.1402 72.2062 17.2503 72.1137 17.3237 72.0398C17.4704 71.9104 17.7089 71.7255 18.0208 71.5407C18.1675 71.4482 18.351 71.3743 18.5344 71.2819C18.7178 71.2079 18.938 71.134 19.1581 71.06C19.5984 70.9306 20.1303 70.8567 20.7357 70.8567C21.0475 70.8567 21.3594 70.8752 21.6896 70.9121C22.0198 70.9491 22.3683 70.9861 22.6985 71.0415C23.0471 71.097 23.3956 71.1709 23.7258 71.2264C24.056 71.3003 24.3862 71.3558 24.698 71.4297C25.3217 71.5592 25.872 71.6886 26.2573 71.781C26.6425 71.8734 26.8993 71.9474 26.8993 71.9474C26.8993 71.9474 26.6975 72.0952 26.349 72.2986C26.1839 72.4095 25.9638 72.5389 25.7436 72.6683C25.6152 72.7423 25.5052 72.8162 25.3768 72.8716C25.2483 72.9456 25.1016 73.0011 24.9548 73.075C24.6613 73.2044 24.3495 73.3523 24.0376 73.4817C23.8725 73.5371 23.7074 73.6111 23.5423 73.6665C23.469 73.7035 23.3772 73.722 23.3039 73.759C23.2121 73.7775 23.1388 73.8144 23.047 73.8329C22.3683 74.0178 21.6712 74.1472 21.0475 74.1472C19.7635 74.1102 18.7729 73.6296 18.1125 73.1674C17.7823 72.9456 17.5255 72.7053 17.342 72.5204C17.1769 72.354 17.0852 72.2246 17.0852 72.2246C17.0852 72.2246 17.0852 72.2062 17.1402 72.1692V72.2062Z" fill="#B7926A"/>
<path d="M18.9188 68.435C18.7537 68.9711 18.5153 69.3963 18.2401 69.7475C18.0934 69.9324 17.9466 70.0803 17.7998 70.1912C17.6531 70.3206 17.5063 70.4315 17.3596 70.524C17.0661 70.7088 16.8093 70.8197 16.6258 70.8937C16.5341 70.9306 16.4424 70.9491 16.4057 70.9676C16.3507 70.9676 16.314 70.9861 16.314 70.9861C16.314 70.9861 16.2589 70.8567 16.1856 70.6349C16.1122 70.413 16.0205 70.0803 15.9471 69.6921C15.8003 68.9157 15.727 67.8805 16.0388 66.8822C16.1856 66.3646 16.424 65.8655 16.6992 65.4034C16.9744 64.9412 17.2679 64.4975 17.5614 64.1278C17.7081 63.943 17.8365 63.7581 17.9649 63.6102C18.0934 63.4623 18.2034 63.3144 18.2951 63.2035C18.4969 62.9817 18.607 62.8523 18.607 62.8523C18.607 62.8523 18.662 63.0556 18.7537 63.4069C18.8271 63.7581 18.9372 64.2572 19.0289 64.8118C19.0656 65.0891 19.1023 65.4034 19.1206 65.7176C19.139 66.0134 19.1573 66.3276 19.139 66.6419C19.139 66.9562 19.1206 67.2704 19.0839 67.5662C19.0472 67.862 18.9922 68.1578 18.9188 68.435Z" fill="#B7926A"/>
<path d="M25.9263 65.163C26.0363 64.9966 26.2014 64.7563 26.4582 64.4975C26.6967 64.2387 27.0269 63.9799 27.4121 63.7396C27.7974 63.4993 28.2743 63.2774 28.8613 63.1111C29.0631 63.0556 29.2649 63.0186 29.485 62.9632C29.7052 62.9262 29.9069 62.8892 30.1454 62.8523C31.2644 62.6859 32.5118 62.6119 33.4657 62.5565C34.4196 62.501 35.1167 62.4825 35.1167 62.4825C35.1167 62.4825 34.8782 62.7783 34.4746 63.222C34.0894 63.6656 33.484 64.2017 32.8237 64.7378C32.7136 64.8118 32.6219 64.9042 32.5118 64.9781C32.4568 65.0151 32.4017 65.0521 32.3467 65.0891C32.2917 65.126 32.2366 65.163 32.1816 65.2C31.9615 65.3479 31.723 65.4773 31.5029 65.6067C31.2644 65.7361 31.0443 65.847 30.8058 65.9394C30.5673 66.0318 30.3472 66.1243 30.1087 66.1797C28.8613 66.494 27.779 66.2907 27.0086 66.0318C26.2198 65.7546 25.7612 65.4033 25.7612 65.4033C25.7612 65.4033 25.8162 65.2924 25.9263 65.126V65.163Z" fill="#B7926A"/>
<path d="M25.5043 63.7027C25.2842 63.9615 25.0641 64.1463 24.899 64.2572C24.7339 64.3681 24.6238 64.4236 24.6238 64.4236C24.6238 64.4236 24.2569 63.9799 23.89 63.2775C23.5232 62.575 23.1563 61.5953 23.1746 60.5416C23.1746 60.1534 23.2113 59.7467 23.2847 59.3769C23.3214 59.1921 23.3764 58.9887 23.4314 58.8039C23.4865 58.619 23.5232 58.4342 23.5965 58.2493C23.6883 57.935 23.7983 57.6393 23.9084 57.3805C23.9451 57.3065 23.9634 57.2511 24.0001 57.1771C24.0184 57.1217 24.0551 57.0477 24.0735 56.9923C24.1285 56.8629 24.1652 56.7519 24.2019 56.6595C24.3853 56.2528 24.5137 55.994 24.5137 55.994C24.5137 55.994 24.8623 56.5116 25.2475 57.288C25.3392 57.4914 25.4493 57.6947 25.5594 57.9166C25.6144 58.0275 25.6511 58.1384 25.7061 58.2678C25.7611 58.3787 25.7978 58.5081 25.8529 58.619C26.0363 59.0997 26.1831 59.6173 26.2931 60.1349C26.3298 60.3382 26.3665 60.5231 26.3848 60.7264C26.4032 60.9113 26.4215 61.0961 26.4215 61.281C26.4215 61.8356 26.3115 62.3162 26.1464 62.7229C25.9813 63.1296 25.7428 63.4438 25.5227 63.7027H25.5043Z" fill="#B7926A"/>
<path d="M34.1808 56.8073C33.9423 56.8073 33.7222 56.8073 33.502 56.8073C32.6765 56.7519 32.1262 56.5485 32.1262 56.5485C32.1262 56.5485 32.1262 56.4376 32.1996 56.2343C32.2363 56.1418 32.273 56.0309 32.328 55.9015C32.383 55.7721 32.4381 55.6242 32.5298 55.4764C32.6765 55.1621 32.915 54.8293 33.2269 54.4781C33.3002 54.4042 33.3736 54.3117 33.4837 54.2193C33.5754 54.1269 33.6671 54.0529 33.7588 53.9605C33.9606 53.7941 34.1808 53.6278 34.4376 53.4799C34.6944 53.332 34.9879 53.1841 35.2814 53.0362C35.5749 52.8883 35.8868 52.7589 36.1986 52.611C36.8407 52.3522 37.501 52.1119 38.1064 51.8901C38.6934 51.6867 39.2254 51.5019 39.6106 51.3725C39.9958 51.2431 40.2343 51.1691 40.2343 51.1691C40.2343 51.1691 40.1426 51.391 39.9775 51.7607C39.9041 51.9455 39.7941 52.1674 39.6657 52.4077C39.5372 52.648 39.3905 52.9068 39.2254 53.1656C39.0603 53.4244 38.8769 53.7202 38.6751 53.9975C38.62 54.0714 38.5833 54.1269 38.5283 54.2008C38.4733 54.2748 38.4182 54.3302 38.3632 54.4042C38.2532 54.5336 38.1431 54.663 38.033 54.7924C37.7946 55.0512 37.5561 55.2915 37.2993 55.5133C37.1709 55.6242 37.0424 55.7352 36.914 55.8276C36.7856 55.92 36.6389 56.0124 36.5105 56.0864C35.9601 56.4006 35.4098 56.5855 34.8962 56.6964C34.6394 56.7519 34.3825 56.7704 34.1624 56.7889L34.1808 56.8073Z" fill="#B7926A"/>
<path d="M31.705 53.8311C31.6499 54.2563 31.5399 54.6445 31.3931 54.9403C31.3197 55.0882 31.2464 55.236 31.173 55.347C31.0996 55.4579 31.0262 55.5688 30.9528 55.6427C30.8244 55.7906 30.7327 55.883 30.7327 55.883C30.7327 55.883 30.2558 55.5503 29.7054 54.9772C29.577 54.8293 29.4303 54.6815 29.2835 54.4966C29.1368 54.3117 28.99 54.1269 28.8616 53.9235C28.6048 53.5168 28.3663 53.0547 28.2196 52.5556C28.1829 52.4262 28.1462 52.2968 28.1279 52.1674C28.0912 52.038 28.0728 51.9086 28.0545 51.7607C28.0178 51.5019 27.9811 51.2246 27.9811 50.9658C27.9811 50.4297 27.9811 49.9121 27.9994 49.4499C27.9994 49.2096 28.0361 49.0063 28.0728 48.8029C28.0728 48.5996 28.1095 48.4332 28.1279 48.2853C28.1645 47.9896 28.2012 47.8232 28.2012 47.8232C28.2012 47.8232 28.3663 47.9711 28.6415 48.2114C28.9166 48.4702 29.2652 48.8214 29.6688 49.2651C30.0356 49.6903 30.4392 50.2079 30.7694 50.744C30.9345 51.0028 31.0996 51.28 31.2464 51.5573C31.3748 51.8346 31.4848 52.1119 31.5582 52.3707C31.6316 52.6295 31.6866 52.8883 31.705 53.1286C31.705 53.258 31.705 53.369 31.7233 53.4799C31.7233 53.5353 31.7233 53.5908 31.7233 53.6462C31.7233 53.7017 31.7233 53.7572 31.7233 53.8126L31.705 53.8311Z" fill="#B7926A"/>
<path d="M39.0051 45.7712C38.7666 45.9376 38.5281 46.067 38.2896 46.1964C37.8127 46.4182 37.3541 46.5661 36.9505 46.6401C36.1434 46.8065 35.5564 46.751 35.5564 46.751C35.5564 46.751 35.483 46.2704 35.6481 45.6049C35.6848 45.4385 35.7398 45.2536 35.7948 45.0688C35.8499 44.8839 35.9416 44.6806 36.0333 44.4772C36.125 44.2739 36.2534 44.052 36.4185 43.8487C36.4919 43.7378 36.5653 43.6269 36.657 43.5344C36.712 43.479 36.7487 43.4235 36.8038 43.3681C36.8405 43.3126 36.8955 43.2572 36.9505 43.2017C37.7393 42.3329 39.0234 41.4455 40.0507 40.7246C40.5643 40.3733 41.0229 40.0591 41.3715 39.8373C41.7016 39.6154 41.9218 39.486 41.9218 39.486C41.9218 39.486 41.8851 39.7263 41.8301 40.1145C41.7567 40.5027 41.665 41.0573 41.4999 41.6489C41.3164 42.2589 41.0779 42.9059 40.7844 43.5344C40.7111 43.6823 40.6377 43.8487 40.546 43.9966C40.4542 44.1445 40.3625 44.2924 40.2708 44.4218C40.0874 44.6991 39.8856 44.9579 39.6655 45.1797C39.4453 45.4015 39.2252 45.6049 38.9867 45.7712H39.0051Z" fill="#B7926A"/>
<path d="M34.0716 46.4737C34.0716 46.4737 33.5213 46.2889 32.8242 45.8637C32.4757 45.6603 32.0905 45.383 31.7419 45.0688C31.5585 44.9024 31.375 44.736 31.2283 44.5327C31.0448 44.3478 30.8981 44.126 30.733 43.9042C30.5862 43.6823 30.4578 43.442 30.3478 43.2017C30.2377 42.9614 30.146 42.7026 30.0543 42.4438C29.8708 41.9447 29.7424 41.4271 29.669 40.9649C29.559 40.5028 29.4856 40.0961 29.4489 39.8188C29.4122 39.523 29.3939 39.3566 29.3939 39.3566C29.3939 39.3566 29.5957 39.4491 29.9075 39.6339C30.2377 39.8003 30.678 40.0591 31.1549 40.3918C31.6319 40.7061 32.1822 41.0943 32.6408 41.5195C33.1177 41.9447 33.5396 42.4068 33.8515 42.8874C34.0166 43.1278 34.1267 43.3496 34.2 43.5899C34.2918 43.8117 34.3468 44.0521 34.3835 44.2554C34.4202 44.4772 34.4385 44.6806 34.4385 44.8654C34.4385 45.0503 34.4385 45.2352 34.3835 45.4015C34.2734 46.067 34.0349 46.4737 34.0349 46.4737H34.0716Z" fill="#B7926A"/>
<path d="M40.2892 31.1673C40.2525 31.4262 40.2158 31.685 40.1424 31.9253C40.0324 32.4244 39.8856 32.905 39.6472 33.3117C39.3536 33.8663 38.9868 34.31 38.6015 34.6427C38.2163 34.9939 37.8311 35.2527 37.4459 35.4376C36.7121 35.8258 36.1251 35.9367 36.1251 35.9367C36.1251 35.9367 36.0884 35.8258 36.0334 35.6225C35.9967 35.4191 35.905 35.1418 35.8866 34.7906C35.8499 34.4394 35.8683 34.0327 35.96 33.589C36.0334 33.1453 36.1801 32.6462 36.4553 32.1101C36.547 31.9438 36.6571 31.7589 36.7671 31.574C36.8222 31.4816 36.8772 31.3892 36.9322 31.2967C36.9873 31.2043 37.0606 31.1119 37.1157 31.0195C37.4275 30.5573 37.7761 30.0952 38.1246 29.6515C38.4731 29.2078 38.8217 28.7827 39.1152 28.4314C39.7205 27.7105 40.1608 27.1929 40.1608 27.1929C40.1608 27.1929 40.2342 27.5626 40.3075 28.1357C40.3442 28.4314 40.3626 28.7642 40.3809 29.1524C40.3809 29.5221 40.3809 29.9288 40.3809 30.354C40.3809 30.6128 40.3442 30.8716 40.3075 31.1304L40.2892 31.1673Z" fill="#B7926A"/>
<path d="M30.6775 34.5133C30.6775 34.5133 30.5307 34.3839 30.4574 34.3099C30.384 34.236 30.3106 34.162 30.2372 34.0881C30.0905 33.9402 29.9621 33.7923 29.852 33.626C29.7236 33.4781 29.6135 33.3117 29.5035 33.1453C29.3934 32.9789 29.2833 32.8126 29.1916 32.6647C29.0082 32.3874 28.8614 32.1101 28.733 31.8513C28.6596 31.7219 28.6046 31.5925 28.5496 31.4816C28.4946 31.3707 28.4395 31.2598 28.3845 31.1673C28.1827 30.7791 28.0726 30.5018 28.0726 30.5018C28.0726 30.5018 28.6963 30.5943 29.5769 30.8346C29.797 30.89 30.0355 30.964 30.2739 31.0379C30.5124 31.1119 30.7509 31.2043 30.9894 31.2967C31.4846 31.4816 31.9799 31.7219 32.4385 31.9807C32.8054 32.184 33.1173 32.4059 33.3924 32.6462C33.8143 33.0159 34.1262 33.4226 34.328 33.8108C34.5114 34.199 34.6031 34.5872 34.6582 34.92C34.6949 35.2527 34.7132 35.53 34.6582 35.7334C34.6398 35.9367 34.6031 36.0476 34.6031 36.0476C34.6031 36.0476 34.0161 36.0106 33.2457 35.8073C32.4569 35.5855 31.4663 35.1973 30.6592 34.4948L30.6775 34.5133Z" fill="#B7926A"/>
<path d="M35.5939 23.4957C35.3187 23.9394 35.0069 24.2906 34.7134 24.5679C34.1263 25.1225 33.5944 25.3997 33.5944 25.3997C33.5944 25.3997 33.521 25.3073 33.4109 25.1409C33.3009 24.9746 33.1724 24.6973 33.044 24.383C32.9156 24.0688 32.7872 23.6806 32.7505 23.2184C32.7138 22.9966 32.7138 22.7378 32.7322 22.4975C32.7322 22.2387 32.7505 21.9614 32.8056 21.6841C32.8606 21.3883 32.934 21.0925 33.0257 20.7783C33.0624 20.6304 33.1174 20.464 33.1724 20.2976C33.2275 20.1497 33.2825 19.9834 33.3375 19.817C33.5577 19.1885 33.8145 18.5415 34.053 17.9684C34.1814 17.6911 34.2914 17.4138 34.4015 17.1735C34.5116 16.9332 34.6033 16.7114 34.6767 16.545C34.8418 16.1753 34.9335 15.9719 34.9335 15.9719C34.9335 15.9719 35.0435 16.1938 35.227 16.545C35.3187 16.7298 35.3921 16.9517 35.5022 17.192C35.5939 17.4508 35.6856 17.7281 35.7957 18.0239C35.8507 18.1717 35.8874 18.3196 35.9424 18.486C35.9791 18.6524 36.0341 18.8003 36.0708 18.9666C36.1442 19.2994 36.1992 19.6321 36.2543 19.9834C36.3093 20.3161 36.3276 20.6674 36.3276 20.9816C36.3276 21.3144 36.2909 21.6471 36.2359 21.9429C36.1075 22.5529 35.9057 23.0705 35.6306 23.5142L35.5939 23.4957Z" fill="#B7926A"/>
<path d="M27.2287 25.1224C26.9902 24.9746 26.7701 24.8082 26.5499 24.6418C26.3298 24.4754 26.128 24.2906 25.9446 24.1242C25.7611 23.9578 25.5594 23.773 25.3943 23.6066C25.2292 23.4402 25.0824 23.2739 24.9357 23.126C24.8623 23.052 24.8072 22.9781 24.7522 22.9226C24.6972 22.8487 24.6421 22.7932 24.5871 22.7378C24.3853 22.5159 24.2753 22.3865 24.2753 22.3865C24.2753 22.3865 24.4954 22.368 24.8806 22.3311C25.2475 22.3126 25.7795 22.2756 26.3481 22.2941C26.9352 22.2941 27.5772 22.368 28.2376 22.479C28.4027 22.5159 28.5678 22.5344 28.7145 22.5714C28.8613 22.6084 29.008 22.6453 29.1731 22.7008C29.4667 22.7932 29.7602 22.8856 30.017 23.0151C30.2738 23.126 30.4939 23.2739 30.7141 23.4033C30.9158 23.5511 31.0809 23.7175 31.246 23.8654C31.5395 24.1982 31.7597 24.5309 31.9064 24.8267C32.0532 25.1224 32.1082 25.3997 32.1449 25.6031C32.1816 25.8064 32.1816 25.9173 32.1816 25.9173C32.1816 25.9173 31.6129 26.0467 30.7874 26.0467C30.3839 26.0467 29.9253 26.0283 29.43 25.9358C28.9347 25.8619 28.421 25.714 27.9257 25.4922C27.6873 25.3813 27.4488 25.2334 27.2103 25.0855L27.2287 25.1224Z" fill="#B7926A"/>
<path d="M29.7964 14.0309C29.6496 14.53 29.4662 14.9552 29.246 15.2879C28.8241 15.9719 28.4022 16.3786 28.4022 16.3786C28.4022 16.3786 27.9803 16.1013 27.5584 15.5468C27.4483 15.3989 27.3383 15.251 27.2465 15.0661C27.1365 14.8997 27.0447 14.6964 26.953 14.4931C26.7696 14.0679 26.6412 13.5688 26.5861 12.9772C26.5311 12.4041 26.5311 11.7386 26.5861 11.0547C26.6412 10.3707 26.6962 9.70519 26.7696 9.09516C26.843 8.48512 26.9163 7.94903 26.9714 7.54234C27.0264 7.15414 27.0631 6.91382 27.0631 6.91382C27.0631 6.91382 27.1181 6.95079 27.1915 7.04322C27.2649 7.13565 27.3749 7.24657 27.5033 7.41294C27.7602 7.7272 28.1087 8.17086 28.4572 8.68847C28.8058 9.22456 29.1543 9.8346 29.4295 10.4446C29.7046 11.0732 29.8881 11.7386 29.9431 12.3487C29.9431 12.4966 29.9615 12.6445 29.9615 12.7923C29.9615 12.9402 29.9615 13.0881 29.9431 13.2175C29.9064 13.4948 29.8514 13.7536 29.7964 14.0124V14.0309Z" fill="#B7926A"/>
<path d="M22.1839 17.7651C22.0555 17.7281 21.9271 17.6726 21.7987 17.6172C21.7253 17.5987 21.6703 17.5617 21.6153 17.5432C21.5419 17.5063 21.4869 17.4878 21.4135 17.4693C20.8999 17.2659 20.4229 17.0071 20.0193 16.7668C19.5974 16.545 19.2489 16.3232 18.9921 16.1568C18.8637 16.0644 18.7719 16.0089 18.7169 15.9534C18.6435 15.9165 18.6068 15.8795 18.6068 15.8795C18.6068 15.8795 18.6619 15.861 18.7536 15.824C18.8453 15.7871 18.9921 15.7316 19.1572 15.6762C19.5057 15.5652 20.001 15.4174 20.5697 15.2695C20.8632 15.1955 21.1567 15.1401 21.4685 15.0846C21.6153 15.0476 21.7804 15.0291 21.9455 15.0107C22.0922 14.9922 22.2573 14.9737 22.4224 14.9552C23.0645 14.8997 23.7065 14.8997 24.2752 14.9922C24.8438 15.0846 25.3024 15.288 25.6877 15.5098C25.8711 15.6207 26.0546 15.7501 26.2013 15.8795C26.3481 16.0089 26.4765 16.1383 26.5865 16.2677C27.0268 16.7853 27.1735 17.229 27.1735 17.229C27.1735 17.229 26.6599 17.5063 25.8711 17.7281C25.4859 17.839 25.0273 17.9314 24.532 17.9869C24.0367 18.0424 23.5231 18.0239 22.9727 17.9314C22.6976 17.8945 22.4408 17.8205 22.1656 17.7281L22.1839 17.7651Z" fill="#B7926A"/>
<path d="M20.6795 8.3742C20.5878 8.59603 20.5144 8.72543 20.5144 8.72543C20.5144 8.72543 20.4777 8.72543 20.441 8.68846C20.386 8.66997 20.3126 8.633 20.2209 8.59603C20.0374 8.5036 19.7623 8.3742 19.4871 8.15237C18.9368 7.7087 18.2581 7.0617 17.8178 5.95254C17.6711 5.58282 17.5426 5.19462 17.4142 4.76944C17.2675 4.23335 17.1574 3.67877 17.0473 3.12419C16.9373 2.5881 16.8456 2.07049 16.7722 1.60835C16.6254 0.684048 16.5337 0.0185547 16.5337 0.0185547C16.5337 0.0185547 16.8639 0.2219 17.3592 0.554647C17.5977 0.72102 17.8912 0.924366 18.1847 1.16468C18.4782 1.405 18.79 1.68229 19.0835 1.97806C19.267 2.16292 19.4504 2.34778 19.6339 2.53264C19.6706 2.5881 19.7256 2.62507 19.7623 2.68053C19.799 2.73599 19.8357 2.77296 19.8907 2.82842C19.9641 2.93933 20.0558 3.03176 20.1292 3.14268C20.441 3.56785 20.6978 3.99303 20.8629 4.43669C20.9913 4.71398 21.0647 5.00976 21.1014 5.28705C21.1564 5.56434 21.1748 5.82314 21.1748 6.08194C21.1748 6.59955 21.1014 7.04321 21.0097 7.43142C20.8996 7.81962 20.7895 8.13388 20.6795 8.35571V8.3742Z" fill="#B7926A"/>
<path d="M13.3605 11.5538C13.0303 11.4798 12.7185 11.4059 12.4433 11.332C12.1498 11.258 11.893 11.2026 11.6729 11.1286C11.2326 10.9992 10.9758 10.8883 10.9758 10.8883C10.9758 10.8883 11.4711 10.5186 12.2232 10.0564C12.5901 9.8346 13.0487 9.5758 13.5256 9.33548C14.0026 9.11365 14.5162 8.9103 15.0299 8.74393C15.4151 8.63301 15.8187 8.54058 16.1855 8.48513C17.3229 8.37421 18.2217 8.70696 18.7721 9.09516C19.0472 9.28002 19.2673 9.48337 19.3958 9.63125C19.4691 9.7052 19.5242 9.76066 19.5425 9.79763C19.5792 9.8346 19.5975 9.87157 19.5975 9.87157C19.5975 9.87157 19.4875 9.964 19.304 10.1304C19.1206 10.2783 18.8271 10.4816 18.4785 10.7034C18.13 10.9253 17.7081 11.1286 17.2495 11.3135C17.0294 11.4059 16.7725 11.4798 16.5341 11.5353C16.2773 11.5908 16.0204 11.6462 15.7453 11.6832C14.9381 11.7756 14.1126 11.6462 13.3422 11.5168L13.3605 11.5538Z" fill="#B7926A"/>
<path d="M1.52896 76.5688C1.74909 76.5504 2.02425 76.5134 2.31776 76.4764C2.46451 76.4579 2.62961 76.4395 2.81305 76.4025C2.97815 76.3655 3.16159 76.347 3.34503 76.3101C3.71191 76.2546 4.13383 76.1806 4.55574 76.1067C4.97765 76.0143 5.41791 75.9218 5.89486 75.8109C6.13333 75.7555 6.35346 75.7185 6.59194 75.6446C6.83041 75.5891 7.05054 75.5152 7.30736 75.4412C7.7843 75.3118 8.27959 75.1824 8.75654 75.016C10.6827 74.4245 12.5538 73.6296 13.9112 72.9826C14.2414 72.8162 14.5533 72.6683 14.8284 72.5204C14.9569 72.4465 15.0853 72.391 15.2137 72.3356C15.3237 72.2801 15.4338 72.2062 15.5255 72.1692C15.9108 71.9474 16.1309 71.8365 16.1309 71.8365C16.1309 71.8365 16.351 71.7071 16.7362 71.5037C17.1215 71.2819 17.6351 70.9491 18.2771 70.5424C19.5245 69.7106 21.1755 68.546 22.6614 67.2335C24.1656 65.921 25.5414 64.479 26.5136 63.3329C26.6421 63.2035 26.7521 63.0556 26.8622 62.9262C26.9723 62.7968 27.064 62.6674 27.174 62.5565C27.3575 62.3162 27.5226 62.1128 27.6693 61.9465C27.8161 61.7801 27.9078 61.6322 27.9812 61.5398C28.0546 61.4474 28.0912 61.3919 28.0912 61.3919C28.0912 61.3919 28.238 61.1886 28.4948 60.8373C28.6232 60.671 28.7883 60.4491 28.9534 60.2088C29.1185 59.95 29.302 59.6727 29.5037 59.3584C29.6138 59.2106 29.7239 59.0442 29.8339 58.8778C29.944 58.7114 30.0357 58.5266 30.1458 58.3417C30.3659 57.972 30.586 57.5838 30.8245 57.1956C31.0446 56.7889 31.2648 56.3637 31.4849 55.9385C31.5399 55.8276 31.595 55.7167 31.65 55.6058C31.705 55.4949 31.7417 55.384 31.7968 55.2731C31.8885 55.0512 31.9985 54.8294 32.1086 54.6076C32.9341 52.8144 33.6128 50.9658 33.9981 49.5424C34.0531 49.3576 34.1081 49.1912 34.1448 49.0433C34.1998 48.8769 34.2365 48.729 34.2732 48.5811C34.3466 48.2854 34.4016 48.0266 34.4567 47.8232C34.5667 47.398 34.6034 47.1577 34.6034 47.1577C34.6034 47.1577 34.6034 47.1023 34.6401 46.9914C34.6768 46.8804 34.6951 46.7141 34.7318 46.4922C34.7685 46.2889 34.8235 46.0301 34.8786 45.7343C34.9336 45.4385 35.007 45.1058 35.0437 44.7361C35.0987 44.3664 35.1354 43.9781 35.1904 43.553C35.1904 43.4421 35.2271 43.3496 35.2271 43.2387C35.2271 43.1278 35.2271 43.0169 35.2638 42.906C35.2638 42.6841 35.3005 42.4623 35.3188 42.222C35.4105 41.2977 35.4105 40.3179 35.4472 39.3382C35.4105 38.3584 35.4105 37.3787 35.3188 36.4544C35.3188 36.2325 35.2821 35.9922 35.2638 35.7704C35.2638 35.6595 35.2638 35.5486 35.2271 35.4376C35.2271 35.3267 35.1904 35.2158 35.1904 35.1234C35.1354 34.7167 35.0804 34.31 35.0437 33.9403C35.007 33.5706 34.9336 33.2378 34.8786 32.942C34.8235 32.6463 34.7868 32.3875 34.7318 32.1841C34.6951 31.9808 34.6584 31.8144 34.6401 31.7035C34.6217 31.5926 34.6034 31.5371 34.6034 31.5371C34.6034 31.5371 34.5484 31.2968 34.4567 30.8901C34.4016 30.6868 34.3466 30.428 34.2732 30.1322C34.2365 29.9843 34.1998 29.8364 34.1448 29.67C34.0898 29.5037 34.0531 29.3373 33.9981 29.1709C33.6128 27.7475 32.9341 25.8989 32.1086 24.1058C31.9985 23.8839 31.8885 23.6621 31.7968 23.4403C31.7417 23.3294 31.6867 23.2184 31.65 23.1075C31.595 22.9966 31.5399 22.8857 31.4849 22.7748C31.2464 22.3496 31.0263 21.9244 30.8245 21.5177C30.586 21.111 30.3476 20.7413 30.1458 20.3716C30.0357 20.1867 29.9257 20.0019 29.8339 19.8355C29.7239 19.6691 29.6138 19.5028 29.5037 19.3549C29.302 19.0406 29.1185 18.7633 28.9534 18.5045C28.7883 18.2457 28.6232 18.0424 28.4948 17.876C28.238 17.5248 28.0912 17.3214 28.0912 17.3214C28.0912 17.3214 28.0546 17.266 27.9812 17.1735C27.9078 17.0811 27.8161 16.9332 27.6693 16.7668C27.5409 16.6005 27.3575 16.3971 27.174 16.1568C27.0823 16.0459 26.9723 15.9165 26.8622 15.7871C26.7521 15.6577 26.6421 15.5098 26.5136 15.3804C25.5414 14.2528 24.1656 12.8109 22.6614 11.4984C21.1572 10.1674 19.5245 9.02124 18.2771 8.18937C17.6351 7.80117 17.1215 7.44993 16.7362 7.2281C16.351 7.00627 16.1309 6.89536 16.1309 6.89536C16.1309 6.89536 15.9108 6.76595 15.5255 6.56261C15.4338 6.50715 15.3237 6.45169 15.2137 6.37775C15.0853 6.32229 14.9752 6.24835 14.8284 6.19289C14.7367 6.15592 14.645 6.10046 14.5349 6.045H14.5166C14.2781 6.06349 13.9296 6.08197 13.526 6.045C12.7005 6.00803 11.6549 5.84166 10.7194 5.32405C10.2424 5.06525 9.78381 4.7325 9.38024 4.36278C9.17846 4.17792 8.97667 3.99306 8.79323 3.8082C8.60979 3.62334 8.44469 3.43849 8.2796 3.27211C7.98609 2.92088 7.71093 2.60662 7.52749 2.3663C7.34405 2.14447 7.25232 1.99658 7.25232 1.99658C7.25232 1.99658 7.47246 1.99658 7.83934 1.99658C8.20622 1.99658 8.71986 1.99658 9.32521 2.05204C9.47196 2.05204 9.61872 2.07053 9.78381 2.08901C9.93057 2.1075 10.0957 2.12598 10.2424 2.16296C10.5543 2.21841 10.8661 2.27387 11.178 2.34781C11.8017 2.4957 12.4437 2.69905 12.9207 2.97634C13.4159 3.25363 13.8012 3.58637 14.0947 3.91912C14.3698 4.25187 14.5533 4.62159 14.6817 4.93585C14.8101 5.25011 14.8651 5.5274 14.8835 5.71226C14.8835 5.74923 14.8835 5.7862 14.8835 5.82317C14.9202 5.84166 14.9569 5.86014 14.9935 5.87863C15.1403 5.95257 15.2687 6.00803 15.3788 6.06349C15.5072 6.13743 15.5989 6.19289 15.709 6.24835C16.0942 6.47018 16.3143 6.58109 16.3143 6.58109C16.3143 6.58109 16.5344 6.7105 16.9197 6.91384C17.3049 7.13567 17.8369 7.48691 18.4789 7.87511C19.7447 8.70698 21.3956 9.89008 22.9182 11.2211C24.4408 12.5521 25.8349 14.0124 26.8072 15.1401C26.9356 15.288 27.0456 15.4174 27.1557 15.5468C27.2658 15.6762 27.3575 15.8056 27.4675 15.935C27.651 16.1753 27.8344 16.3786 27.9628 16.545C28.1096 16.7114 28.2013 16.8593 28.2747 16.9517C28.3481 17.0441 28.3847 17.0996 28.3847 17.0996C28.3847 17.0996 28.5315 17.3029 28.7883 17.6542C28.9167 17.839 29.0818 18.0424 29.2469 18.3012C29.412 18.56 29.5955 18.8373 29.8156 19.1515C29.9257 19.3179 30.0174 19.4658 30.1458 19.6322C30.2558 19.7985 30.3476 19.9834 30.476 20.1683C30.6961 20.538 30.9346 20.9262 31.1547 21.3329C31.3748 21.7396 31.595 22.1647 31.8334 22.6084C31.8885 22.7193 31.9435 22.8302 31.9985 22.9412C32.0536 23.0521 32.1086 23.163 32.1453 23.2739C32.2554 23.4957 32.3654 23.736 32.4571 23.9579C33.2826 25.7695 33.9797 27.6366 34.3649 29.0785C34.42 29.2633 34.475 29.4297 34.5117 29.5961C34.5667 29.7625 34.6034 29.9103 34.6401 30.0582C34.7135 30.354 34.7685 30.6128 34.8235 30.8162C34.9153 31.2413 34.9703 31.4817 34.9703 31.4817C34.9703 31.4817 34.9703 31.5371 35.007 31.648C35.0437 31.7589 35.062 31.9253 35.0987 32.1471C35.1354 32.369 35.1904 32.6278 35.2455 32.9236C35.3005 33.2193 35.3739 33.5521 35.4105 33.9218C35.4656 34.2915 35.5023 34.6982 35.5573 35.1234C35.5573 35.2343 35.5756 35.3452 35.594 35.4376C35.594 35.5486 35.594 35.6595 35.6307 35.7704C35.6307 35.9922 35.6674 36.2141 35.6857 36.4544C35.7774 37.3787 35.7774 38.3769 35.8141 39.3567C35.7774 40.3549 35.7774 41.3347 35.6857 42.259C35.6674 42.4993 35.649 42.7211 35.6307 42.9429C35.6307 43.0539 35.6307 43.1648 35.594 43.2757C35.594 43.3866 35.5573 43.4975 35.5573 43.5899C35.5023 44.0151 35.4472 44.4218 35.4105 44.773C35.3739 45.1428 35.2821 45.4755 35.2455 45.7713C35.1904 46.0671 35.1354 46.3259 35.0987 46.5477C35.062 46.751 35.0253 46.9359 35.007 47.0468C34.9886 47.1577 34.9703 47.2132 34.9703 47.2132C34.9703 47.2132 34.9153 47.4535 34.8235 47.8787C34.7685 48.1005 34.7135 48.3408 34.6401 48.6366C34.6034 48.7845 34.5667 48.9324 34.5117 49.0988C34.4566 49.2651 34.42 49.4315 34.3649 49.6164C33.9797 51.0583 33.2826 52.9253 32.4571 54.737C32.3471 54.9588 32.237 55.1991 32.1453 55.4209C32.0903 55.5319 32.0352 55.6428 31.9985 55.7537C31.9435 55.8646 31.8885 55.9755 31.8334 56.0864C31.6133 56.5116 31.3748 56.9553 31.1547 57.362C30.9162 57.7687 30.6961 58.1569 30.476 58.5266C30.3659 58.7114 30.2742 58.8963 30.1458 59.0627C30.0357 59.229 29.9257 59.3954 29.8156 59.5433C29.6138 59.8576 29.412 60.1349 29.2469 60.3937C29.0818 60.6525 28.9167 60.8558 28.7883 61.0407C28.5315 61.3919 28.3847 61.5952 28.3847 61.5952C28.3847 61.5952 28.3481 61.6507 28.2747 61.7431C28.2013 61.8356 28.1096 61.9834 27.9628 62.1498C27.8161 62.3162 27.651 62.5195 27.4675 62.7599C27.3575 62.8708 27.2658 63.0002 27.1557 63.1296C27.0456 63.259 26.9356 63.4069 26.8072 63.5363C25.8166 64.6824 24.4224 66.1243 22.9182 67.4553C21.3956 68.7863 19.7447 69.9694 18.4789 70.8012C17.8369 71.2079 17.3049 71.5407 16.9197 71.7625C16.5344 71.9843 16.3143 72.0953 16.3143 72.0953C16.3143 72.0953 16.0942 72.2247 15.709 72.428C15.6172 72.4835 15.5072 72.5389 15.3788 72.6129C15.2687 72.6683 15.1403 72.7423 14.9935 72.7977C14.7184 72.9271 14.4065 73.0935 14.058 73.2599C12.6822 73.9069 10.8111 74.7203 8.84827 75.3118C8.37132 75.4782 7.87603 75.6076 7.39908 75.737C7.16061 75.8109 6.92213 75.8664 6.68366 75.9403C6.44518 76.0143 6.20671 76.0512 5.96824 76.1067C5.49129 76.2176 5.05103 76.3101 4.61077 76.4025C4.17051 76.4764 3.76694 76.5504 3.40006 76.6058C3.21662 76.6428 3.03318 76.6798 2.86808 76.6983C2.70298 76.7352 2.53789 76.7352 2.37279 76.7722C2.06094 76.8092 1.80412 76.8461 1.58399 76.8646C1.14374 76.9201 0.886916 76.9571 0.886916 76.9571L0.850227 76.5688C0.850227 76.5688 1.10705 76.5319 1.52896 76.4764V76.5688Z" fill="#B7926A"/>
</svg>
