<svg width="21" height="20" viewBox="0 0 21 20" fill="none" xmlns="http://www.w3.org/2000/svg">
<path d="M13.4174 10.0001C13.4174 9.21341 13.1441 8.54008 12.5974 7.98008C12.0508 7.42008 11.3774 7.14008 10.5774 7.14008C9.77744 7.14008 9.1041 7.42008 8.55744 7.98008C8.01077 8.54008 7.73077 9.21341 7.71744 10.0001C7.7041 10.7867 7.9841 11.4601 8.55744 12.0201C9.13077 12.5801 9.8041 12.8601 10.5774 12.8601C11.3508 12.8601 12.0241 12.5801 12.5974 12.0201C13.1708 11.4601 13.4441 10.7867 13.4174 10.0001ZM14.9574 10.0001C14.9574 11.2134 14.5308 12.2534 13.6774 13.1201C12.8241 13.9867 11.7908 14.4134 10.5774 14.4001C9.3641 14.3867 8.3241 13.9601 7.45744 13.1201C6.59077 12.2801 6.1641 11.2401 6.17744 10.0001C6.19077 8.76008 6.61744 7.72008 7.45744 6.88008C8.29744 6.04008 9.33744 5.61341 10.5774 5.60008C11.8174 5.58675 12.8508 6.01341 13.6774 6.88008C14.5041 7.74675 14.9308 8.78675 14.9574 10.0001ZM16.1774 5.42008C16.1774 5.70008 16.0774 5.94008 15.8774 6.14008C15.6774 6.34008 15.4308 6.44008 15.1374 6.44008C14.8441 6.44008 14.6041 6.34008 14.4174 6.14008C14.2308 5.94008 14.1308 5.70008 14.1174 5.42008C14.1041 5.14008 14.2041 4.90008 14.4174 4.70008C14.6308 4.50008 14.8708 4.40008 15.1374 4.40008C15.4041 4.40008 15.6508 4.50008 15.8774 4.70008C16.1041 4.90008 16.2041 5.14008 16.1774 5.42008ZM10.5774 2.96008C10.5241 2.96008 10.2374 2.96008 9.71744 2.96008H8.53744C8.27077 2.96008 7.91077 2.97341 7.45744 3.00008C7.0041 3.02674 6.6241 3.06008 6.31744 3.10008C6.01077 3.14008 5.7441 3.21341 5.51744 3.32008C5.1441 3.46675 4.81744 3.68008 4.53744 3.96008C4.25744 4.24008 4.03744 4.56674 3.87744 4.94008C3.79744 5.15341 3.73077 5.42008 3.67744 5.74008C3.6241 6.06008 3.5841 6.44674 3.55744 6.90008C3.53077 7.35341 3.5241 7.70675 3.53744 7.96008C3.55077 8.21341 3.55077 8.60674 3.53744 9.14008C3.5241 9.67341 3.5241 9.96008 3.53744 10.0001C3.55077 10.0401 3.55077 10.3267 3.53744 10.8601C3.5241 11.3934 3.5241 11.7867 3.53744 12.0401C3.55077 12.2934 3.55744 12.6467 3.55744 13.1001C3.55744 13.5534 3.59744 13.9401 3.67744 14.2601L3.87744 15.0601C4.03744 15.4334 4.25744 15.7601 4.53744 16.0401C4.81744 16.3201 5.1441 16.5334 5.51744 16.6801C5.73077 16.7601 5.99744 16.8334 6.31744 16.9001C6.63744 16.9667 7.01744 17.0001 7.45744 17.0001C7.89744 17.0001 8.25744 17.0134 8.53744 17.0401C8.81744 17.0667 9.21077 17.0667 9.71744 17.0401C10.2241 17.0134 10.5108 17.0134 10.5774 17.0401C10.6441 17.0667 10.9241 17.0667 11.4174 17.0401C11.9108 17.0134 12.3041 17.0134 12.5974 17.0401C12.8908 17.0667 13.2508 17.0534 13.6774 17.0001C14.1041 16.9467 14.4908 16.9134 14.8374 16.9001C15.1841 16.8867 15.4441 16.8134 15.6174 16.6801C15.9908 16.5334 16.3241 16.3201 16.6174 16.0401C16.9108 15.7601 17.1241 15.4334 17.2574 15.0601C17.3374 14.8467 17.4041 14.5801 17.4574 14.2601C17.5108 13.9401 17.5508 13.5534 17.5774 13.1001C17.6041 12.6467 17.6108 12.2934 17.5974 12.0401C17.5841 11.7867 17.5841 11.3934 17.5974 10.8601C17.6108 10.3267 17.6108 10.0401 17.5974 10.0001C17.5841 9.96008 17.5841 9.67341 17.5974 9.14008C17.6108 8.60674 17.6108 8.21341 17.5974 7.96008C17.5841 7.70675 17.5774 7.35341 17.5774 6.90008C17.5774 6.44674 17.5374 6.06008 17.4574 5.74008L17.2574 4.94008C17.1108 4.56674 16.8974 4.24008 16.6174 3.96008C16.3374 3.68008 16.0041 3.46675 15.6174 3.32008C15.4041 3.24008 15.1441 3.16675 14.8374 3.10008C14.5308 3.03341 14.1441 3.00008 13.6774 3.00008C13.2108 3.00008 12.8508 2.98674 12.5974 2.96008C12.3441 2.93341 11.9508 2.93341 11.4174 2.96008C10.8841 2.98674 10.6041 2.98674 10.5774 2.96008ZM19.1374 10.0001C19.1374 11.7067 19.1174 12.8867 19.0774 13.5401C19.0108 15.0867 18.5508 16.2867 17.6974 17.1401C16.8441 17.9934 15.6508 18.4534 14.1174 18.5201C13.4508 18.5601 12.2708 18.5801 10.5774 18.5801C8.8841 18.5801 7.7041 18.5601 7.03744 18.5201C5.49077 18.4401 4.29077 17.9801 3.43744 17.1401C2.5841 16.3001 2.1241 15.1001 2.05744 13.5401C2.01744 12.8867 1.99744 11.7067 1.99744 10.0001C1.99744 8.29341 2.01744 7.11341 2.05744 6.46008C2.1241 4.91341 2.5841 3.71341 3.43744 2.86008C4.29077 2.00674 5.49077 1.54675 7.03744 1.48008C7.69077 1.44008 8.87077 1.42008 10.5774 1.42008C12.2841 1.42008 13.4641 1.44008 14.1174 1.48008C15.6641 1.56008 16.8574 2.02008 17.6974 2.86008C18.5374 3.70008 18.9974 4.90008 19.0774 6.46008C19.1174 7.11341 19.1374 8.29341 19.1374 10.0001Z" fill="#B7926A"/>
</svg>
