<svg width="50" height="50" viewBox="0 0 50 50" fill="none" xmlns="http://www.w3.org/2000/svg">
<path d="M42.2562 7.97923C40.7187 7.05389 38.8458 6.98613 37.2438 7.79452L32.6374 10.1233C31.7687 10.5624 30.7313 10.5644 29.8625 10.1233L21.0895 5.68741C20.3645 5.32015 19.5687 5.13751 18.775 5.1334C18.7666 5.1334 18.7583 5.12939 18.75 5.12939C18.7416 5.12939 18.7333 5.1334 18.725 5.1334C17.9292 5.13751 17.1354 5.32015 16.4104 5.68741L9.22913 9.31906C6.74996 10.5727 5.20831 13.0902 5.20831 15.8847V36.7654C5.20831 38.6263 6.15625 40.3087 7.74375 41.2627C9.28333 42.1881 11.1562 42.2558 12.7562 41.4474L17.3625 39.1187C18.2292 38.6775 19.2666 38.6775 20.1374 39.1187L28.9104 43.5545C29.6313 43.9197 30.4229 44.1003 31.2146 44.1044C31.2271 44.1044 31.2375 44.1127 31.25 44.1127C31.2625 44.1127 31.2729 44.1065 31.2854 44.1044C32.0771 44.0983 32.8666 43.9177 33.5895 43.5545L40.7708 39.9229C43.25 38.6693 44.7916 36.1519 44.7916 33.3574V12.4767C44.7916 10.6178 43.8437 8.93535 42.2562 7.97923ZM16.4104 37.2947L11.8041 39.6233C10.8437 40.1117 9.75834 40.0707 8.83126 39.5126C7.86876 38.934 7.29165 37.9061 7.29165 36.7674V15.8867C7.29165 13.8637 8.39788 12.0479 10.1812 11.1451L17.3625 7.5135C17.4729 7.45811 17.5937 7.42931 17.7083 7.38828V36.8597C17.2625 36.9499 16.825 37.0854 16.4104 37.2947ZM21.0895 37.2947C20.6749 37.0854 20.2375 36.9499 19.7916 36.8597V7.38828C19.9062 7.42931 20.027 7.45811 20.1374 7.5135L28.9104 11.9494C29.325 12.1586 29.7625 12.294 30.2083 12.3843V41.8557C30.0937 41.8146 29.9729 41.786 29.8625 41.7306L21.0895 37.2947ZM42.7083 33.3594C42.7083 35.3824 41.6021 37.1982 39.8187 38.1009L32.6374 41.7326C32.527 41.788 32.4062 41.8168 32.2916 41.8578V12.3864C32.7375 12.2961 33.1749 12.1606 33.5895 11.9514L38.1958 9.62274C39.1583 9.13442 40.2437 9.17536 41.1687 9.73344C42.1312 10.312 42.7083 11.34 42.7083 12.4787V33.3594Z" fill="#B7926A"/>
</svg>
