<svg width="21" height="20" viewBox="0 0 21 20" fill="none" xmlns="http://www.w3.org/2000/svg">
<g clip-path="url(#clip0_1_1736)">
<path d="M3.72754 6.66008C3.72754 5.86008 3.86754 5.10674 4.14754 4.40008C4.42754 3.69341 4.81421 3.07341 5.30754 2.54008C5.80087 2.00674 6.36754 1.54675 7.00754 1.16008C7.64754 0.773413 8.33421 0.480078 9.06754 0.280079C9.80087 0.0800781 10.5542 -0.0132542 11.3275 7.82013e-05C12.5009 7.82013e-05 13.5942 0.246746 14.6075 0.740078C15.6209 1.23341 16.4409 1.95341 17.0675 2.90008C17.6942 3.84675 18.0075 4.91341 18.0075 6.10008C18.0075 6.82008 17.9409 7.52008 17.8075 8.20008C17.6742 8.88008 17.4475 9.54008 17.1275 10.1801C16.8075 10.8201 16.4342 11.3734 16.0075 11.8401C15.5809 12.3067 15.0475 12.6934 14.4075 13.0001C13.7675 13.3067 13.0609 13.4467 12.2875 13.4201C11.7809 13.4201 11.2809 13.3001 10.7875 13.0601C10.2942 12.8201 9.93421 12.4934 9.70754 12.0801L9.40754 13.3401C9.27421 13.8867 9.18087 14.2401 9.12754 14.4001C9.07421 14.5601 9.00087 14.8267 8.90754 15.2001C8.81421 15.5734 8.71421 15.8334 8.60754 15.9801C8.50087 16.1267 8.38754 16.3601 8.26754 16.6801C8.14754 17.0001 7.97421 17.2934 7.74754 17.5601C7.52087 17.8267 7.28754 18.1467 7.04754 18.5201L6.90754 18.5801L6.80754 18.4601C6.68754 17.2867 6.62754 16.5867 6.62754 16.3601C6.62754 15.6801 6.70754 14.9134 6.86754 14.0601C7.02754 13.2067 7.27421 12.1334 7.60754 10.8401L8.18754 8.58008C7.94754 8.10008 7.82754 7.47341 7.82754 6.70008C7.82754 6.07341 8.02087 5.49341 8.40754 4.96008C8.79421 4.42675 9.28754 4.15341 9.88754 4.14008C10.3409 4.14008 10.6942 4.29341 10.9475 4.60008C11.2009 4.90674 11.3275 5.28675 11.3275 5.74008C11.3275 6.23341 11.1675 6.94008 10.8475 7.86008C10.5275 8.78008 10.3642 9.47674 10.3575 9.95008C10.3509 10.4234 10.5142 10.8134 10.8475 11.1201C11.1809 11.4267 11.5875 11.5801 12.0675 11.5801C12.4809 11.5801 12.8609 11.4867 13.2075 11.3001C13.5542 11.1134 13.8475 10.8601 14.0875 10.5401C14.3275 10.2201 14.5342 9.86674 14.7075 9.48008C14.8809 9.09341 15.0209 8.68674 15.1275 8.26008C15.2342 7.83341 15.3075 7.42008 15.3475 7.02008C15.3875 6.62008 15.4142 6.24675 15.4275 5.90008C15.4275 4.62008 15.0209 3.62008 14.2075 2.90008C13.3942 2.18008 12.3275 1.82008 11.0075 1.82008C9.52754 1.82008 8.28754 2.30008 7.28754 3.26008C6.28754 4.22008 5.78754 5.44008 5.78754 6.92008C5.78754 7.25341 5.83421 7.57341 5.92754 7.88008C6.02087 8.18674 6.12087 8.42675 6.22754 8.60008C6.33421 8.77341 6.43421 8.94674 6.52754 9.12008C6.62087 9.29341 6.66754 9.40674 6.66754 9.46008C6.66754 9.66008 6.61421 9.92675 6.50754 10.2601C6.40087 10.5934 6.26087 10.7601 6.08754 10.7601L5.90754 10.7401C5.52087 10.6201 5.18087 10.4134 4.88754 10.1201C4.59421 9.82675 4.36754 9.47341 4.20754 9.06008C4.04754 8.64674 3.92754 8.24675 3.84754 7.86008C3.76754 7.47341 3.72754 7.07341 3.72754 6.66008Z" fill="#B7926A"/>
</g>
<defs>
<clipPath id="clip0_1_1736">
<rect width="20" height="20" fill="white" transform="matrix(1 0 0 -1 0.900024 20)"/>
</clipPath>
</defs>
</svg>
