<svg width="18" height="18" viewBox="0 0 18 18" fill="none" xmlns="http://www.w3.org/2000/svg">
<path d="M17.736 16.7632L13.4331 12.4604C14.5276 11.1487 15.1876 9.46292 15.1876 7.625C15.1876 3.45508 11.795 0.0625 7.62512 0.0625C3.45521 0.0625 0.0626221 3.45508 0.0626221 7.625C0.0626221 11.7949 3.45521 15.1875 7.62512 15.1875C9.46304 15.1875 11.1488 14.5276 12.4605 13.4331L16.7634 17.7359C16.8972 17.8697 17.0732 17.9375 17.2492 17.9375C17.4252 17.9375 17.6012 17.8706 17.735 17.7359C18.0045 17.4673 18.0045 17.0318 17.736 16.7632ZM1.43762 7.625C1.43762 4.21317 4.21329 1.4375 7.62512 1.4375C11.037 1.4375 13.8126 4.21317 13.8126 7.625C13.8126 11.0368 11.037 13.8125 7.62512 13.8125C4.21329 13.8125 1.43762 11.0368 1.43762 7.625Z" fill="#222529"/>
</svg>
