<svg width="22" height="22" viewBox="0 0 22 22" fill="none" xmlns="http://www.w3.org/2000/svg">
<g clip-path="url(#clip0_1_1762)">
<path d="M2.98817 1.01379L2.94562 1.05634L1.52387 2.47809C0.625992 3.37597 0.248814 4.70057 0.675331 5.91442L2.98817 1.01379ZM2.98817 1.01379C3.16952 0.843686 3.38267 0.710704 3.6156 0.622596C3.86759 0.52728 4.13698 0.486664 4.40587 0.503444C4.67477 0.520224 4.93701 0.594017 5.1752 0.719922C5.41339 0.845827 5.62207 1.02096 5.78737 1.2337L5.78755 1.23393L8.25426 4.40463C8.61217 4.8648 8.73854 5.46447 8.59699 6.03064L8.59697 6.03075L7.84484 9.042L7.84479 9.0422C7.78505 9.28181 7.78827 9.53281 7.85416 9.77081C7.92005 10.0088 8.04635 10.2257 8.22081 10.4005L8.22114 10.4008L11.5995 13.7792L11.5997 13.7794C11.7747 13.9542 11.992 14.0807 12.2304 14.1466C12.4687 14.2125 12.72 14.2155 12.9598 14.1555C12.9599 14.1555 12.96 14.1554 12.9601 14.1554L15.9697 13.4034L15.9697 13.4034C16.249 13.3335 16.5406 13.3281 16.8223 13.3875C17.104 13.4469 17.3685 13.5696 17.5959 13.7462L20.7664 16.2128C20.7664 16.2128 20.7664 16.2128 20.7664 16.2128C21.6692 16.9152 21.7513 18.2485 20.9442 19.0545L20.944 19.0547L19.5223 20.4765C18.6243 21.3744 17.3011 21.7515 16.086 21.3237L16.0859 21.3236C12.5283 20.0719 9.29824 18.0352 6.63524 15.3647L6.63423 15.3637C3.96395 12.7012 1.92733 9.47163 0.675404 5.91462L2.98817 1.01379ZM1.85334 2.80928L1.85315 2.80947C1.06873 3.59551 0.755889 4.73477 1.11654 5.76204L1.11669 5.76245C2.34567 9.25343 4.34478 12.423 6.96576 15.036C9.57879 17.6569 12.7483 19.656 16.2393 20.885L16.2397 20.8852C17.267 21.2458 18.4062 20.933 19.1923 20.1486L19.1926 20.1482L20.6141 18.7267C20.6142 18.7266 20.6143 18.7265 20.6144 18.7265C20.758 18.5829 20.8695 18.4105 20.9414 18.2205C21.0134 18.0305 21.0441 17.8274 21.0315 17.6246L20.5325 17.6555L21.0315 17.6246C21.0189 17.4218 20.9633 17.224 20.8684 17.0443C20.7735 16.8646 20.6415 16.7072 20.4811 16.5825L17.309 14.1158L17.3085 14.1154C17.1371 13.9825 16.9378 13.8903 16.7255 13.8456C16.5133 13.801 16.2937 13.8051 16.0833 13.8577L13.0722 14.6098L13.0721 14.6098C12.7539 14.6894 12.4205 14.6851 12.1045 14.5976C11.7884 14.51 11.5005 14.3422 11.2686 14.1103C11.2685 14.1103 11.2685 14.1103 11.2685 14.1102L7.89156 10.7319L7.89127 10.7316C7.65917 10.4998 7.49107 10.2119 7.40332 9.8958C7.31559 9.57976 7.31119 9.24639 7.39055 8.92815C7.39056 8.92811 7.39057 8.92808 7.39057 8.92805L8.14398 5.91716L8.144 5.91708C8.19662 5.70667 8.20076 5.48706 8.15612 5.27482C8.11147 5.06257 8.01921 4.86324 7.88628 4.69185L7.88589 4.69135L5.41919 1.51929C5.41918 1.51927 5.41916 1.51925 5.41914 1.51923C5.29444 1.35884 5.13705 1.22681 4.95741 1.13191C4.77775 1.03701 4.57995 0.981415 4.37715 0.968827C4.17435 0.95624 3.9712 0.986946 3.78118 1.05891C3.59118 1.13086 3.41867 1.24241 3.27509 1.38615C3.27507 1.38617 3.27506 1.38619 3.27504 1.3862L1.85334 2.80928Z" fill="#222529" stroke="black"/>
</g>
<defs>
<clipPath id="clip0_1_1762">
<rect width="22" height="22" fill="white"/>
</clipPath>
</defs>
</svg>
