<svg width="21" height="20" viewBox="0 0 21 20" fill="none" xmlns="http://www.w3.org/2000/svg">
<g clip-path="url(#clip0_1_1730)">
<path d="M18.5675 4.55998C18.0742 5.27998 17.4742 5.89998 16.7675 6.41998V6.87998C16.7675 7.85331 16.6275 8.81998 16.3475 9.77998C16.0675 10.74 15.6409 11.6666 15.0675 12.56C14.4942 13.4533 13.8075 14.2333 13.0075 14.9C12.2075 15.5666 11.2475 16.1133 10.1275 16.54C9.00755 16.9666 7.80088 17.1666 6.50755 17.14C4.49422 17.14 2.65422 16.6 0.987549 15.52C1.24088 15.5466 1.52755 15.56 1.84755 15.56C3.52755 15.56 5.02088 15.0466 6.32755 14.02C5.54088 14.0066 4.84088 13.7666 4.22755 13.3C3.61422 12.8333 3.18755 12.24 2.94755 11.52C3.20088 11.56 3.42755 11.58 3.62755 11.58C3.94755 11.58 4.26755 11.54 4.58755 11.46C3.74755 11.2866 3.05422 10.8733 2.50755 10.22C1.96088 9.56665 1.68755 8.79998 1.68755 7.91998V7.87998C2.19422 8.15998 2.74088 8.31331 3.32755 8.33998C2.83422 8.00665 2.44088 7.57998 2.14755 7.05998C1.85422 6.53998 1.70755 5.95998 1.70755 5.31998C1.70755 4.67998 1.87422 4.07998 2.20755 3.51998C3.11422 4.62665 4.20755 5.51331 5.48755 6.17998C6.76755 6.84665 8.15422 7.21332 9.64755 7.27998C9.58088 6.99998 9.54755 6.72665 9.54755 6.45998C9.54755 5.45998 9.90088 4.61331 10.6075 3.91998C11.3142 3.22665 12.1609 2.87331 13.1475 2.85998C14.2009 2.85998 15.0809 3.23998 15.7875 3.99998C16.6009 3.83998 17.3675 3.54665 18.0875 3.11998C17.8075 3.97331 17.2742 4.63998 16.4875 5.11998C17.1809 5.03998 17.8742 4.85331 18.5675 4.55998Z" fill="#B7926A"/>
</g>
<defs>
<clipPath id="clip0_1_1730">
<rect width="20" height="20" fill="white" transform="matrix(1 0 0 -1 0.300049 20)"/>
</clipPath>
</defs>
</svg>
